<svg id="Ñëîé_7" data-name="Ñëîé 7" xmlns="http://www.w3.org/2000/svg" viewBox="0 0 1366 213.83"><defs><style>.cls-1{fill:#3a1252;}.cls-2{fill:#662d91;}.cls-3{fill:#260f44;}</style></defs><title>Layer 4</title><path class="cls-1" d="M734.36,625.18l-.38,0-44.89-2,.08-.55c.06-.39,1-1.6,2.79-3.6l.86-1c2.93-3.34,6.56-7.52,12.87-7.19,3.37.17,5.19.59,6.14,1.05v-9.46l10.81,6.76,2-10.72,14.94,10.67Zm-43.8-3,43.09,1.94,4.77-14.62-13.06-9.33-2,10.62-10.52-6.58V613h-1a.25.25,0,0,0,0,.12s-.6-1-6.21-1.29c-5.78-.28-9.28,3.67-12.07,6.85l-.87,1C691.55,621,690.91,621.74,690.56,622.21Z" transform="translate(0 -554.17)"/><path class="cls-1" d="M595,609.19l-35.73-.69-.85-5.94.8.32c.08,0,8,3.21,10.13,3.62,0-.9-1.71-4.18-3.4-6.89l-.88-1.41,1.51.69c6.41,2.92,13.63,5.78,14.79,5.73a11.4,11.4,0,0,1,3.1-2.21l-4.12-21,9.35,15.1L591,584l7.1,13.82,1.7,5.5-7.54-3.59-1.38,3.58Zm-34.86-1.68,32.93.64-3.26-4.75,2-5.08,6.46,3.08-1-3.25-5.54-10.77-1.31,12.12-8-12.9,3.21,16.35-.34.17a11.24,11.24,0,0,0-3.14,2.16c-.24.36-.86,1.29-14.48-4.82,1.49,2.52,3.17,5.76,2.54,6.7a.84.84,0,0,1-.89.34,91.35,91.35,0,0,1-9.63-3.38Z" transform="translate(0 -554.17)"/><path class="cls-1" d="M1366,768V700.21c-138.44-28.32-471.43-95-610.18-110.11l2.85-3.09,6.33-2-1-4-4.67,1.67L761,580l-1.67-1.67-13,8.33,9-11-4-2.67L738,586.67,744.33,567l-23.67-10.67S706,565,697,569c-4,1.79-9.51,7.51-14.35,13.28l-3.48-6.78-8.33-6.33-4.67,7.67,1-11.33-18.33-10.33s-8.67-1-12.33-1-31.67,16.33-31.67,16.33l2.67,9.33-7-3.33-1,2.63c-4.39-2.53-9.07-4.77-11.49-4.46a7.37,7.37,0,0,0-1.5.43l.17-.1-33-7s-10.67,1.33-19.33,3.33c-7.94,1.83-34.91,18.78-40.14,21.86l-.32.19c-32.15,1.2-65.89,2.51-100.09,3.87l1.55-4.92-4-4.67-4.44,9.86-1.12,0,1.55-11.9-4.67-1.33-2.4,13.45-.93,0V582.33l-4-1.33-.59,17-.69,0-4.72-17.7L364,581.67l1.47,5.33h-4.13l4,10.67h-6.67L356,586.33h-3.33l3.55,12.42-5.57.23-8-8,3.07,8.18C200,605.1,55.66,611.45,0,613.93V768Z" transform="translate(0 -554.17)"/><path class="cls-2" d="M462,602l11-5,38,10-10-11s32-17,44-20,58,4,58,4l-3-2.21-.51,1.34c-4.39-2.53-9.07-4.77-11.49-4.46a7.37,7.37,0,0,0-1.5.43l.17-.1-33-7s-10.67,1.33-19.33,3.33c-7.94,1.83-34.91,18.78-40.14,21.86l-.32.19c-28.11,1.05-57.44,2.18-87.23,3.36L406,597C409,597,462,602,462,602Z" transform="translate(0 -554.17)"/><path class="cls-2" d="M382,588l5,.32.34-2.64-4.67-1.33Z" transform="translate(0 -554.17)"/><path class="cls-2" d="M356,586.33h-3.33l2.41,8.43,2.61-1.26Z" transform="translate(0 -554.17)"/><path class="cls-2" d="M344.1,592.43l-.43,1.24,2.07,5.51-4,.16-1,3s3.68-2.08,8.67-4.67Z" transform="translate(0 -554.17)"/><path class="cls-2" d="M369.33,580.33,364,581.67l1.47,5.33h-4.13l1.55,4.13a57.68,57.68,0,0,1,8.51-3.08Z" transform="translate(0 -554.17)"/><path class="cls-2" d="M390.92,588.58l1.28.09-.86-1Z" transform="translate(0 -554.17)"/><path class="cls-2" d="M375.1,587.68c1.18,0,2.62.08,4.23.16v-5.51l-4-1.33Z" transform="translate(0 -554.17)"/><polygon class="cls-2" points="426 55.83 471 53.83 520 68.83 469 59.83 426 55.83"/><polygon class="cls-2" points="566 48.83 612 46.83 712.33 58.83 613 51.83 566 48.83"/><polygon class="cls-2" points="535 56.83 589 54.83 551 62.83 535 56.83"/><polygon class="cls-2" points="518 30.83 511 10.83 518.5 25.33 518 16.33 522 23.83 521 14.33 525 22.83 518 30.83"/><polygon class="cls-2" points="478.5 40.83 478.5 33.33 482 40.83 485 35.33 485.5 41.83 478.5 40.83"/><polygon class="cls-2" points="569 18.83 570 12.33 573.5 13.33 573 18.83 577 10.83 580 10.83 576.5 22.33 569 18.83"/><polygon class="cls-2" points="630 49.33 626 26.33 632 48.83 632 29.83 635.5 50.83 638 42.83 640 50.83 630 49.33"/><polygon class="cls-2" points="592.5 48.83 590 38.33 595.5 49.33 595.5 43.33 599 48.17 600 31.33 602.5 49.83 592.5 48.83"/><path class="cls-3" d="M331,651S99.07,649.13,0,648.84V768H453.71L675,635Z" transform="translate(0 -554.17)"/></svg>