<svg id="Ñëîé_1" data-name="Ñëîé 1" xmlns="http://www.w3.org/2000/svg" xmlns:xlink="http://www.w3.org/1999/xlink" viewBox="0 0 1366 768"><defs><style>.cls-1{fill:url(#Áåçûìÿííûé_ãðàäèåíò_5);}.cls-2{fill:#ffe8c0;}.cls-3{fill:#f6f6f6;}</style><linearGradient id="Áåçûìÿííûé_ãðàäèåíò_5" x1="675.8" y1="9.85" x2="683.8" y2="425.85" gradientUnits="userSpaceOnUse"><stop offset="0" stop-color="#7600ff"/><stop offset="1" stop-color="#fb9d50"/></linearGradient></defs><title>Layer 0</title><rect class="cls-1" width="1366" height="768"/><circle class="cls-2" cx="230.5" cy="135.5" r="37.51"/><circle class="cls-3" cx="487.8" cy="167.69" r="3.1"/><circle class="cls-3" cx="346.68" cy="80.79" r="3.1"/><circle class="cls-3" cx="754" cy="179" r="1.67"/><circle class="cls-3" cx="879.17" cy="233.8" r="1.67"/><circle class="cls-3" cx="19.75" cy="265.47" r="1.67"/><circle class="cls-3" cx="535.8" cy="316.15" r="1.67"/><circle class="cls-3" cx="631.81" cy="172.13" r="1.67"/><circle class="cls-3" cx="1141.86" cy="43.12" r="1.67"/><circle class="cls-3" cx="1072.86" cy="298.14" r="1.67"/><circle class="cls-3" cx="181.77" cy="169.13" r="1.67"/><circle class="cls-3" cx="529.8" cy="31.12" r="1.67"/><circle class="cls-3" cx="325.78" cy="271.14" r="1.67"/><circle class="cls-3" cx="1205.4" cy="224.1" r="1.67"/><circle class="cls-3" cx="29.79" cy="24.59" r="1.67"/><circle class="cls-3" cx="1276.88" cy="61.45" r="1.67"/><circle class="cls-3" cx="140" cy="25" r="3.1"/><circle class="cls-3" cx="77" cy="185" r="3.1"/><circle class="cls-3" cx="634.71" cy="77.79" r="3.1"/><circle class="cls-3" cx="490.8" cy="287.7" r="3.1"/><circle class="cls-3" cx="1119" cy="115" r="3.1"/><circle class="cls-3" cx="775.83" cy="33.78" r="2"/><circle class="cls-3" cx="941.9" cy="187" r="3.1"/><circle class="cls-3" cx="1079.57" cy="18.71" r="3.1"/></svg>