<svg id="Ñëîé_3" data-name="Ñëîé 3" xmlns="http://www.w3.org/2000/svg" viewBox="0 0 1366 424.86"><defs><style>.cls-1{fill:#9188bf;}</style></defs><title>Layer 1</title><path class="cls-1" d="M1269,362c-36,0-100.93-9.86-124.93-14.36s-40.5,7.5-52.5,7.5-49.5-12-69-12-69,22.5-78,22.5-73.5-12-94.5-10.5-108,7.5-135,12-148.49,9-148.49,9S483,373,459,371.5s-98.5,16.5-137.5,15-98,14-131,11-80.38,9.09-99.88,9.09S0,404.67,0,404.67V768H1057.16l308.84-.88V366.84C1355,366,1301.21,362,1269,362Z" transform="translate(0 -343.14)"/></svg>