<svg xmlns="http://www.w3.org/2000/svg" xmlns:xlink="http://www.w3.org/1999/xlink" viewBox="0 0 1366 560.88"><defs><style>.cls-1{isolation:isolate;}.cls-2{fill:#332070;}.cls-3{fill:#532d9b;}.cls-4{fill:#ab8750;}.cls-5{fill:#180a3a;}.cls-6{fill:#f7931e;}.cls-7{mix-blend-mode:multiply;fill:url(#Áåçûìÿííûé_ãðàäèåíò_8);}.cls-8{fill:#30145a;}.cls-9{fill:#2e1360;}.cls-10{fill:#44328e;}.cls-11{fill:#54259e;}.cls-12{fill:#d82930;}.cls-13{fill:#422084;}.cls-14{fill:#a31022;}.cls-15{fill:#ab1624;}.cls-16{fill:#846640;}.cls-17{fill:#b3b3b3;}</style><linearGradient id="Áåçûìÿííûé_ãðàäèåíò_8" x1="862.1" y1="526.73" x2="421.1" y2="185.73" gradientUnits="userSpaceOnUse"><stop offset="0" stop-color="#fff"/><stop offset="1" stop-color="#999"/></linearGradient></defs><title>Layer 3</title><g class="cls-1"><g id="Ñëîé_6" data-name="Ñëîé 6"><polygon class="cls-2" points="1366 560.88 1366 273.64 609.72 232.35 0 206.27 0 560.88 1366 560.88"/><path class="cls-3" d="M1361,460c-5.11-1.89-5.28-.87-8.73-4.6s.42-2.57-6.09-4.16-5.12,2.32-5.12,2.32-6.34-2.62-7.82-6-14.1-.73-21.44-1.41-4-.65-8-5-7.9-5.52-11.37-5-31.52,2.21-31.52,2.21-5.36-.35-6.17-3.65a37.87,37.87,0,0,1-.71-8s-3.54-3.22-6.83-3.76a7.87,7.87,0,0,1-4.94-2.92,21.57,21.57,0,0,1-4.2-3.33c-1.73-1.87-2-4-8-5s-9.65,1.05-11.63.73a9.86,9.86,0,0,1-5.11-1.89c-1.81-1.35.25-1.54-.73-3.81s-4.62-.76-9.23-1.52-4.8,4.49-4.8,4.49l-5.19-1.38-3-2.08c-3-2.08-2.55-.95-6.51-1.6s-2,3.89-5.05,6-1,1.95-3.23,3.16-3.54-3.22-6.33-6.84-7.66-2.84-15.35,2.76a11.29,11.29,0,0,1-14.19-.22s-4.2-3.33-6.66-4.79-3.62-2.7-9.15-2-7.52,4.57-11.82,6-4.87.78-8-.78-2.71-4.14-9-7.27-9.16,2.19-11.14,1.86-6-.46-8.41-2.43-8.14-8.19-12.84-8.44-10.09,7.84-12.32,9.05,0,0-6.43-2.11-7.34-.68-10.64-1.22-5.28-.87-7.66-2.84-2.29-6.7-5.91-9.41-3.72,2-4.63,3.46-9.59,4.76-9.59,4.76-3.57,5.22-4,7.79-2.23,1.22-10.31.94-10.06-.6-12-1.43-2.62-4.65-5.58-7.25-12.38,1.13-12.38,1.13-2,3.89-6.12,4.27-7.52,4.57-7.52,4.57-3.62-2.7-3.94-4.87-11.3-1.33-14.27.3-2.89,1.11-3.87-1.16-3.61-6.92-7.65-7.06-3.57,5.22-7.45,8.27-5.38,3.87-7.35,3.54-7,1.49-9.33,3.22-5.78,2.22-6.2,4.78-5.71,5.92-7.86,6.62-10.54-5.95-11.94-5.65c0,0-1.71-6.08-5.5-7.76s-6-.46-11.31,2.89-1.67,6.06-5.14,6.54-8.08-.27-11.06,1.35-4.63,3.46-12,2.78-4-4.35-13.92-6-12.48,5.86-12.48,5.86L791.36,415c-5.11-1.89-6.68-.57-8.25.76s-11.39,3.4-18.65,2.21-6.92-3.24-11.37-5-4.38,1.92-8.67,3.32-4.79.27-9.72-2.65-8.1,3.95-14.45,5.54-6.69,3.65-14.78,3.38-5.26-5.08-10-4.81-15.76,1.11-15.76,1.11l-.81-3.3-10.06-.6-.9-2.78c-.9-2.78-5.18-5.6-7.82-6s-6.12,4.27-6.54,6.84-.59,3.6-5.88,6.95-6.1.05-8.74-.38S633.57,415,624.25,414s-1.42,4.51-6.2,4.78-3.94-4.87-5-2.41-7.44,4.05-10.9,4.54-1.47-3.41-3.52-7.43-5.44.16-10.23.43-9,9.6-9.36,11.65-8-.78-9.56-3.68-6.43-2.11-9.64-3.16-11.72,1.24-14.36.81-3.21-1.05-4.28-2.81-4.6-5-10.54-5.95-7.86,6.62-10.9,4.54-4.35-6.52-7.24-5.41-5.64,9.62-6.23,13.22-3.4,4.19-6.69,3.65-5.43-4.06-8.64-5.11-3.62-2.7-3.62-2.7a45,45,0,0,0-5.18-5.6c-1.81-1.35-2.48,2.76-5.29,3.35s-2.47-1.46-2.88-3.11-3.1-10-6.4-10.54-8.46,14.44-8.46,14.44-3.69-6.41-6.33-6.84-3.72,2-5.54,4.89-1.25,3.49-9.42,3.73S393.31,429.32,390,433c0,0,144,15.21,248.88,19.77,88.22,3.83,575.32,22.39,727.12,26.78V461.44A25.74,25.74,0,0,1,1361,460Z" transform="translate(0 -207.12)"/><path class="cls-4" d="M818.48,415.73c-2.16-1.42-2.62-3.55-9.53-4.68a13.85,13.85,0,0,0-6,.19l-5.16,6.26,10.5-4.67-18.67,11.5,23.17-8.5Z" transform="translate(0 -207.12)"/><path class="cls-4" d="M1015.16,388.44c-.91,1.43-9.59,4.76-9.59,4.76s-3.57,5.22-4,7.79c-.37,2.28-1.85,1.47-7.8,1.07,2.45,2.17,5.29,3.79,6.8,1.52,3-4.5,12.92-8.58,14.79-11.71a11.81,11.81,0,0,0,1.75-6l2.51-1C1016.17,382.43,1016.06,387,1015.16,388.44Z" transform="translate(0 -207.12)"/><path class="cls-4" d="M955.24,398.66c-4.13.38-7.52,4.57-7.52,4.57L960,400.5l11.33-7.33-6.49.08c-2,.55-3.49,1.14-3.49,1.14S959.36,398.28,955.24,398.66Z" transform="translate(0 -207.12)"/><path class="cls-4" d="M862.34,403.46c-3.79-1.68-6-.46-11.31,2.89s-1.67,6.06-5.14,6.54-8.08-.27-11.06,1.35c-1.21.66-2.2,1.35-3.44,1.9.71.45,2.67.81,8.11-.3,9-1.83,11.17-4.67,11.5-6.5s10.17-5.83,10.17-5.83l-3,5,3.33-1.83-1,3,3.5-3.5-2.83-.5,3.26-.68A6.73,6.73,0,0,0,862.34,403.46Z" transform="translate(0 -207.12)"/><path class="cls-4" d="M1084,402.37c-2-.32-6-.46-8.41-2.43s-8.14-8.19-12.84-8.44-10.09,7.84-12.32,9.05,0,0-6.43-2.11a18.29,18.29,0,0,0-6.74-1.19l13.24,8,8.75-8.25,15.25,14.5,17-9.25h6.56a22,22,0,0,0-2.93-1.74C1088.87,397.37,1086,402.7,1084,402.37Z" transform="translate(0 -207.12)"/><path class="cls-4" d="M1126.08,402.42c-.64,0-1.36.07-2.17.17a12.51,12.51,0,0,0-5.74,2.27l-7.34,6.47L1119,407l3.5-2.83-2.33,4.17Z" transform="translate(0 -207.12)"/><path class="cls-4" d="M782.5,419.5l7.26-5c-3.86-1.07-5.26.1-6.65,1.28-1.57,1.32-11.39,3.4-18.65,2.21s-6.92-3.24-11.37-5-4.38,1.92-8.67,3.32-4.79.27-9.72-2.65-8.1,3.95-14.45,5.54-6.69,3.65-14.78,3.38-5.26-5.08-10-4.81c-2.61.15-7.06.46-10.57.72l5.64,4.79L728,427.5l3.25-10.75-7,6.5L732,413.5l4,7.5,17.5-2.75-7.25,6Z" transform="translate(0 -207.12)"/><path class="cls-4" d="M1025.25,399.88l1.28-4.85c-.28-.19-.55-.4-.84-.64a7.94,7.94,0,0,1-2-3.22l-7.07,7.07,6.25-3.62Z" transform="translate(0 -207.12)"/><path class="cls-4" d="M559.81,418.69c-2.16-.71-6.7.09-10.25.57a19.09,19.09,0,0,0,8.44,3.41,70.65,70.65,0,0,0,11.82-.26,3.75,3.75,0,0,1-.37-.55C567.89,419,563,419.75,559.81,418.69Z" transform="translate(0 -207.12)"/><path class="cls-4" d="M478.28,416l1.06,2.35,3.6-4.32a9.92,9.92,0,0,0-.8-.69C480.68,412.25,480,414.67,478.28,416Z" transform="translate(0 -207.12)"/><path class="cls-4" d="M394,433.42l7.48.77L440.67,423l9.33-6,9.33,5.67,8-17.67h2.81a4.52,4.52,0,0,0-2.58-2c-3.3-.54-8.46,14.44-8.46,14.44s-3.69-6.41-6.33-6.84-3.72,2-5.54,4.89-1.25,3.49-9.42,3.73c-6.82.2-33.28,7.09-43.74,11.5Z" transform="translate(0 -207.12)"/><path class="cls-4" d="M657.5,417.5l-.78-7.17,8.08.28,1.72-.66a12.85,12.85,0,0,0-6.44-3.81c-2.64-.43-6.12,4.27-6.54,6.84s-.59,3.6-5.88,6.95-6.1.05-8.74-.38c-2.41-.4-4.9-3.88-12.44-5.24l17.53,9Z" transform="translate(0 -207.12)"/><path class="cls-4" d="M512.49,409.87c-2.89,1.11-5.64,9.62-6.23,13.22s-3.4,4.19-6.69,3.65a7.85,7.85,0,0,1-3.34-1.58c2.78,2.21,5.49,3.59,7.44,2.84,4.74-1.84,8.64-13,12-17C514.76,410,513.78,409.38,512.49,409.87Z" transform="translate(0 -207.12)"/><path class="cls-4" d="M522.4,415c.72.39,1.8.48,3.6,0,3.74-.94,9.7-.3,14.19.45a17,17,0,0,0-9.56-4.71C526.55,410.07,524.36,413.47,522.4,415Z" transform="translate(0 -207.12)"/><path class="cls-4" d="M910.53,398.7c-3.89,3.05-5.38,3.87-7.35,3.54s-7,1.49-9.33,3.22-5.78,2.22-6.2,4.78-5.53,5.8-7.74,6.58c3.58,2.17,7.49,2.7,10.93-1,9.5-10.17,16.33-12.33,16.33-12.33s9.33-6.17,9.83-9c.28-1.6,2.54-2.41,4.73-2.53a6.22,6.22,0,0,0-3.74-1.54C913.94,390.3,914.42,395.65,910.53,398.7Z" transform="translate(0 -207.12)"/><path class="cls-4" d="M936.83,399.5a37.74,37.74,0,0,1,6.6-1.66c-1.57-1.22-8.09-.88-11.89.09C933.45,399.21,935.41,400.07,936.83,399.5Z" transform="translate(0 -207.12)"/><path class="cls-4" d="M583,424c5.33-5.33,11-9.33,12.33-8.67s4.33,9,4.33,9l15.17-6.66c-1.22-1.26-1.1-3-1.82-1.33-1.08,2.46-7.44,4.05-10.9,4.54s-1.47-3.41-3.52-7.43-5.44.16-10.23.43-9,9.6-9.36,11.65c-.14.86-1.56.86-3.28.36l-.39,1.77S577.67,429.33,583,424Z" transform="translate(0 -207.12)"/><path class="cls-5" d="M522.5,443s76,7.5,79.5,4.5,15.5-2.5,15.5-2.5l8.5,3.5,23-3.5,63.18-.92L708,447.5l18,1.5-13.5,6.5,107-5L757,457l165-6.5L858,458l47-1-10,4,122.33-7.33-62.67,10-107.33,2.67,30-3.33-144.67,8L798,463l-92.67-2-.58-4-15-1L716,451.75H700.25l9.75-1-39.5,5L687,451l-53,5,15.25-3.75-13.25.5,8.75-4.75-18.5,5.75-2.75-4-9,.5,8.13-1.62-5.87-2.5-4.12,2.75-.62-2.62-1.62,3.13-1.87-3-11.12,5.75,13.5-1.87-7,2.25-9.87.38.5-1.62-20.87-.75,13.38-.37-77.5-4.37,18.5.5-44.5-4.12L527.13,445Z" transform="translate(0 -207.12)"/><path class="cls-6" d="M902.93,432.5c-56.49,2.46-158.29,17.82-192.56,23.18l15.68.62c43-6.54,127.49-18.64,177-20.8,48.19-2.1,241.29-1.74,351.62-1.34a25.82,25.82,0,0,1-.43-3C1143.82,430.76,951.12,430.41,902.93,432.5Z" transform="translate(0 -207.12)"/><polygon class="cls-6" points="885.87 235.88 990.37 244.88 990.84 241.92 960.92 235.02 1029.15 237.73 1008.56 229.49 1007.44 232.28 1011.85 234.04 945.06 231.38 944.66 234.34 969.45 240.06 886.13 232.89 885.87 235.88"/><path class="cls-6" d="M960.78,465.28c104.62-6.82,258.42-16.1,368.14-19.49-4.71-.32-12.12.76-17.1.3-5.55-.51-5-.62-6.1-2.53-118.62,4.28-277.1,14.18-374,20.62Z" transform="translate(0 -207.12)"/><polygon class="cls-6" points="1020 247.22 1032.67 233.22 1112.91 230.87 1037.33 237.88 1020 247.22"/><polygon class="cls-7" points="672.25 296.38 661.29 296.76 654.66 297.42 667.83 299.72 665.52 301.18 754 326.88 416.9 560.88 1237.7 560.88 1093 326.88 672.25 296.38"/><polygon class="cls-6" points="736 238.55 740.67 221.22 908 215.88 749.33 228.55 736 238.55"/><path class="cls-8" d="M938,524.9s-9.14-9.61-10-9.84a21.7,21.7,0,0,1-2.7-.47c-1.52-.47-6.8-11.6-7.85-11.6s-15.35,5.16-16.17,4.69.35-29.24-.06-29.53-4.1-.12-4.69,0,.35,13.24-.12,13.59-36.1.12-36.45-.18.06-3.11-.41-3.57-24.85,0-25.78,0-.47,3.28-.47,3.28-2.34.47-2.81.47,0,13.59,0,13.59l-2.54.07-1.61-32.49s-4.22-4.84-5.47-5-5.16,4.84-5.16,4.84l-1.85,33-3.07.06c-1.88,0-14.53,7.5-14.53,7.5h-4.22c-1.41,0-.47,2.34-1.41,2.81s-21.56,12.19-21.56,12.19,36.56.94,39.14,1.64-8.2,4.69-10.31,6.09,69.61.94,70.08,0-9.38-9.84-10.08-11.49S938,524.9,938,524.9ZM826.39,500.84l-1.48-2.34,1.35.06C826.33,499.8,826.38,500.67,826.39,500.84Zm-.19-3.25-1.89,0-2.9-4.6,1-1.55,3.33-.05C825.93,493.46,826.09,495.77,826.2,497.59Zm-5.35-3.78,2.33,3.7-4.64-.14Zm-.39-2.38h.83l-.42.65Zm5.21-1-2.63,0,2.23-3.44C825.41,487.88,825.54,489.08,825.67,490.41Zm-.84-4.85s.08,0,.12.11l-3,4.79-2,0L817,485.56C817.35,484.94,824,485.56,824.83,485.56Zm-8.07,1.75,2,3.2-2.34,0C816.55,489.29,816.67,488.18,816.76,487.32Zm-.42,4.18,3,0,.94,1.49-2.86,4.4-1.61,0C816,495.35,816.18,493.31,816.35,491.5Zm-.6,6.73,1.09,0-1.26,1.94Zm-.32,3.87,2.51-3.8,5.84.17,2.57,4.09,0,2.88-10.79.27A21.64,21.64,0,0,1,815.43,502.09Z" transform="translate(0 -207.12)"/><rect class="cls-9" x="26.04" y="310.25" width="1" height="325.52" transform="translate(-6.54 -206.71) rotate(-0.79)"/><rect class="cls-9" x="68.04" y="292.25" width="1" height="336.01" transform="translate(-6.16 -206.16) rotate(-0.77)"/><rect class="cls-9" x="106.29" y="269.71" width="1" height="340.6" transform="translate(-11.59 -204.14) rotate(-1.51)"/><rect class="cls-9" x="231.53" y="233.73" width="1" height="346.56" transform="translate(-8.75 -202) rotate(-1.24)"/><rect class="cls-9" x="278.14" y="345" width="1" height="218.75" transform="translate(-2.65 -205.48) rotate(-0.33)"/><rect class="cls-9" x="319.47" y="378.32" width="1" height="174.94" transform="translate(-6.91 -202.29) rotate(-0.85)"/><rect class="cls-9" x="361.05" y="413" width="1" height="126.75" transform="translate(-1.65 -205.86) rotate(-0.2)"/><rect class="cls-9" x="403.05" y="443" width="1" height="86.25" transform="translate(-2.46 -205.06) rotate(-0.29)"/><rect class="cls-9" x="417.59" y="491.38" width="53.75" height="1" transform="translate(-50.9 725.33) rotate(-89.55)"/><rect class="cls-5" x="485.17" y="482.33" width="1" height="25.34" transform="translate(-12.85 -194.17) rotate(-1.51)"/><rect class="cls-5" x="520.17" y="275.88" width="1" height="14"/><rect class="cls-5" x="549.5" y="271.22" width="1" height="12"/><rect class="cls-5" x="575.5" y="263.88" width="1" height="12"/><path class="cls-10" d="M105.31,449.46s186,.5,194,.5,9.5,3,9.5,3-121,5.5-126.5,6,15.5,6,21,6a29.48,29.48,0,0,1,8.5,1s-8.5,2.5-4.5,2.5,71,2,78,3,18.5,3,18.5,3l-73,2s66,8,85,8h29.5l-4.5,2s-68.5-2.5-65.5-1,36.5,6.5,36.5,6.5-45,.5-45,4,62,6.5,62,6.5-52,2-72,2-73.5,4-95.5,4-66-5.5-63-5.5,111.5-2.5,118.5-2.5-35.5-3-78-6.5-61,0-61,0,30.17-3.83,33.83-4.17-22.83-2-22.83-2S99.48,486,101.48,486s21-3.33,13.67-3.33-62.83-3.17-62.83-3.17,69.17-2.33,71.33-2.33-66-2.83-66-2.83,56-5,58.17-5.83-39.33-2-42.5-2.67,38.17-1.67,40.33-1.67-20.5-3.5-.5-4.17S155,460,154,458,105.31,449.46,105.31,449.46Z" transform="translate(0 -207.12)"/><rect class="cls-5" x="598.17" y="254.55" width="1" height="15"/><rect class="cls-5" x="614.52" y="451.42" width="1" height="19.59" transform="translate(-14.33 -187.37) rotate(-1.82)"/><rect class="cls-5" x="630.5" y="437.32" width="1" height="28.7" transform="translate(-20.3 -177.32) rotate(-2.66)"/><rect class="cls-5" x="645.17" y="419.29" width="1" height="42.42" transform="translate(-26.41 -165.66) rotate(-3.6)"/><path class="cls-5" d="M506.63,485.44q-5.13,0-10.41-.18c-42.64-1.46-114.1-46.69-212.41-134.44-73-65.18-134.43-130.79-135-131.44l2.92-2.73c.61.65,61.9,66.14,134.8,131.21,96.21,85.87,168.78,132,209.87,133.4,60.37,2.07,107-14.28,134.79-47.28,21-24.92,24.09-50.85,24.12-51.1l4,.44c-.12,1.1-3.19,27.22-24.89,53.07-12.73,15.16-29.24,27-49.09,35.23C563.09,480.8,536.67,485.44,506.63,485.44Z" transform="translate(0 -207.12)"/><polygon class="cls-11" points="712.18 236.96 0 446.74 0 475.27 716.83 239.72 712.18 236.96"/><path class="cls-5" d="M709.73,443.78S160.05,596.36,0,640.45v14.84L712.18,444.08Z" transform="translate(0 -207.12)"/><polygon class="cls-12" points="0 441.22 0 448.15 245 374.88 0 441.22"/><path class="cls-8" d="M190,208l.23,5.34-34,8.28-.38-5.44-9,.3L157,768h14.43c-.41-27.79-3.45-239.82-1.83-239.84s18.78-.3,20.52.28c1.47.49,3.92,183,4.65,239.57h13.7L200,207.12Zm-5.47,283.85-10.4.17a7.14,7.14,0,0,1-7.05-7.21l-.91-56.16a7.14,7.14,0,0,1,6.82-7.44l10.4-.17a7.14,7.14,0,0,1,7.05,7.21l.91,56.16A7.14,7.14,0,0,1,184.55,491.89ZM186,385.42l-14.8,1.21a6.77,6.77,0,0,1-7.12-6.85l-.69-42.51a6.85,6.85,0,0,1,5.75-7l14.79-2a6.75,6.75,0,0,1,7.46,6.81l.7,43.31A6.83,6.83,0,0,1,186,385.42Zm4.3-89.62L163,302.06a3.61,3.61,0,0,1-4.31-3.6l-.84-52.08a3.69,3.69,0,0,1,2.9-3.74l27.13-5.28a3.61,3.61,0,0,1,4.2,3.61l1,51.1A3.7,3.7,0,0,1,190.27,295.8Z" transform="translate(0 -207.12)"/><polygon class="cls-5" points="217 178.01 215.38 176.13 214.1 87.08 211.18 85.3 210.14 3.35 199.97 0 208.5 560.88 225.04 560.88 217.31 285.46 217 178.01"/><polygon class="cls-5" points="141.22 12.76 142.49 91.29 138.52 95.63 141.5 179.88 138.76 182.33 140.41 283.66 146.44 560.88 157.03 560.88 146.95 9.41 141.22 12.76"/><path class="cls-8" d="M665.34,380.06l.05,1.19-8.14,1.85-.09-1.21L655,382l2.27,123.21,4-1.29s-1.34-52.57-.92-52.57,4.5-.07,4.91.06.23,56.93.23,56.93l4.17.88-2-129.33Zm.25,61.52a1.65,1.65,0,0,1-1.63,1.66l-2.49,0a1.65,1.65,0,0,1-1.69-1.6l-.2-12.5a1.65,1.65,0,0,1,1.63-1.66l2.49,0a1.65,1.65,0,0,1,1.69,1.6Zm.19-23.61a1.56,1.56,0,0,1-1.46,1.57l-3.54.27a1.57,1.57,0,0,1-1.7-1.52l-.15-9.46a1.56,1.56,0,0,1,1.38-1.57l3.54-.45a1.57,1.57,0,0,1,1.78,1.51Zm-.41-18.37-6.53,1.4a.85.85,0,0,1-1-.8l-.19-11.59a.84.84,0,0,1,.69-.83l6.5-1.18a.84.84,0,0,1,1,.8l.22,11.37A.84.84,0,0,1,665.38,399.59Z" transform="translate(0 -207.12)"/><polygon class="cls-5" points="667.73 172.73 670.16 173.47 670.39 191.71 671.09 192.11 671.8 236.26 673.68 301.18 669.68 302.06 667.73 172.73"/><polygon class="cls-5" points="655.03 174.84 653.66 175.59 653.94 193.06 652.99 194.03 653.98 212.63 653.02 213.33 653.39 235.88 654.66 297.42 657.3 298.05 655.03 174.84"/><path class="cls-5" d="M144.13,223.75l-2.63-3.91C128.27,262.46,56.36,296.65,0,317.41v5.16c9.2-3.26,18.82-6.87,28.52-10.83C95.59,284.42,134.49,254.81,144.13,223.75Z" transform="translate(0 -207.12)"/><path class="cls-12" d="M705.25,453.13S118.51,644.05,0,681.8V701L710.85,454.8Z" transform="translate(0 -207.12)"/><path class="cls-5" d="M710.4,451.79C637.1,475.88,89.07,656,0,684.46V701L710.85,454.8Z" transform="translate(0 -207.12)"/><polygon class="cls-13" points="141.9 405.83 170.62 397.75 191 412.26 139.5 429.3 141.9 405.83"/><path class="cls-5" d="M546.94,489.45c-24.37,0-55.41-12.53-92.5-37.36-33.34-22.32-71.7-54.62-114-96-72-70.37-129.85-140.55-130.44-141.28l-.17-4.17c.59.73,61.62,72.4,133.43,142.61,94.67,92.56,168.11,138,212.4,131.56,56-8.21,83.48-35.09,96.66-56.2,14.25-22.81,16.34-43.76,16.35-44l1.25-4,.75,3.67c.12.66,15.27,63.34,34.67,73l.17,1.67c-16.12-8-31.19-43.07-35.55-62.84a111,111,0,0,1-14.23,34.6c-13.63,21.82-42,49.6-99.47,58A64,64,0,0,1,546.94,489.45Z" transform="translate(0 -207.12)"/><polygon class="cls-5" points="2.25 492.51 0 382.09 0 436.53 1.13 492.76 2.25 492.51"/><rect class="cls-5" x="37.57" y="333.21" width="1" height="353.08" transform="translate(-6.59 -206.58) rotate(-0.74)"/><polygon class="cls-5" points="81.13 465.51 77.69 109.11 78.69 109.1 81.94 464.94 81.13 465.51"/><polygon class="cls-5" points="125.63 449.13 118.17 85.89 119.17 85.87 126.75 448.88 125.63 449.13"/><rect class="cls-5" x="250.13" y="314.31" width="1" height="296.14" transform="translate(-8.18 -202.59) rotate(-1.02)"/><rect class="cls-5" x="289.05" y="297.23" width="1" height="301.29" transform="translate(-4.75 -204.01) rotate(-0.61)"/><rect class="cls-5" x="332.25" y="340.62" width="1" height="242.7" transform="translate(-8.48 -200.89) rotate(-1.06)"/><rect class="cls-5" x="372.93" y="381.8" width="1" height="188.58" transform="translate(-7.64 -201.03) rotate(-0.92)"/><rect class="cls-5" x="413.56" y="417.41" width="1" height="138.37" transform="translate(-5.89 -202.05) rotate(-0.7)"/><rect class="cls-5" x="456.19" y="450.2" width="1" height="92.48" transform="translate(-5.76 -201.76) rotate(-0.67)"/><rect class="cls-5" x="494.04" y="472.81" width="1" height="56.28" transform="translate(-2.5 -204.64) rotate(-0.29)"/><rect class="cls-5" x="529.26" y="278.1" width="1" height="31.32"/><rect class="cls-5" x="550.9" y="494.75" width="19.27" height="1" transform="translate(50.17 834.94) rotate(-88.44)"/><rect class="cls-5" x="583.51" y="479.38" width="1" height="18.97" transform="translate(-7.84 -197.6) rotate(-0.93)"/><rect class="cls-5" x="606.31" y="469.95" width="1" height="19.39" transform="translate(-4.29 -201.64) rotate(-0.52)"/><rect class="cls-5" x="622.17" y="460.9" width="1" height="23.85" transform="translate(-7.57 -196.97) rotate(-0.93)"/><polygon class="cls-5" points="638.88 272.49 638.67 239.22 639.47 238.45 639.88 272.48 638.88 272.49"/><polygon class="cls-5" points="650.79 267.27 650.67 224.55 651.36 223.19 651.79 267.26 650.79 267.27"/><rect class="cls-5" x="663.81" y="199.96" width="1" height="62.92"/><polygon class="cls-5" points="679.11 258.45 678.15 207.69 678.81 209.44 680.11 258.43 679.11 258.45"/><path class="cls-14" d="M158.68,298.46l-.84-52.08a3.69,3.69,0,0,1,2.9-3.74l.49-.1c-1.69-.6-4.89-1.36-6.56.79-2.33,3-1,55-.33,58.67.28,1.55,3.13,1,6.31-.25A3.77,3.77,0,0,1,158.68,298.46Z" transform="translate(0 -207.12)"/><polygon class="cls-12" points="217 178.01 215.38 176.13 214.1 87.08 211.18 85.3 210.14 3.35 206.05 2 217.33 444.55 220.97 560.88 225.04 560.88 217.31 285.46 217 178.01"/><path class="cls-12" d="M173.86,492c-3.7-.1-7.13-2.44-7.19-6.38l-2.33-55c-.05-3.3,3.82-8.11,6.65-9.07-3.72-.66-10-.42-11.24,2.4-1.75,4,.33,59.67,2.25,66.33C162.76,493,167.93,493.24,173.86,492Z" transform="translate(0 -207.12)"/><path class="cls-12" d="M169.05,386.44a6.92,6.92,0,0,1-5-6.66l-.69-42.51a6.85,6.85,0,0,1,5.75-7h.11c-3.06-.57-8.75.48-11.21,2-4,2.5-1.5,50-.5,53.75C158,388,163.84,387.42,169.05,386.44Z" transform="translate(0 -207.12)"/><rect class="cls-5" x="161.33" y="258.27" width="1" height="384.73" transform="translate(-3.99 -205.66) rotate(-0.51)"/><path class="cls-15" d="M171,421.6c2.62-.21,5.25-.36,7.88-.42a42.78,42.78,0,0,1,7.91.42,3.78,3.78,0,0,1,1.9.8,5.48,5.48,0,0,1,.62,2c.23,1.31.38,2.62.51,3.93.26,2.62.44,5.25.6,7.88q.42,7.89.62,15.78t.21,15.79l-.6-15.77c-.21-5.26-.42-10.51-.74-15.76-.15-2.62-.31-5.25-.55-7.86-.12-1.31-.26-2.61-.48-3.9a5.87,5.87,0,0,0-.51-1.78,3.52,3.52,0,0,0-1.67-.71,43,43,0,0,0-7.82-.55C176.24,421.41,173.61,421.47,171,421.6Z" transform="translate(0 -207.12)"/><path class="cls-12" d="M170,330a66.66,66.66,0,0,1,14.13-1.41,15.38,15.38,0,0,1,3.56.49,5.29,5.29,0,0,1,1.67.78,2.52,2.52,0,0,1,.64.72,5.72,5.72,0,0,1,.37.85,33.31,33.31,0,0,1,1.2,7c.38,4.73.49,9.47.5,14.21s-.11,9.47-.32,14.2q0-7.1-.06-14.2c-.09-4.73-.2-9.46-.61-14.17a33,33,0,0,0-1.13-6.93,2.64,2.64,0,0,0-.86-1.37,4.88,4.88,0,0,0-1.53-.71,16.39,16.39,0,0,0-3.46-.52,51,51,0,0,0-7.07.19Q173.51,329.44,170,330Z" transform="translate(0 -207.12)"/><path class="cls-12" d="M162.75,242.25a164.12,164.12,0,0,1,19.31-4.37,45.27,45.27,0,0,1,4.94-.5,13.37,13.37,0,0,1,2.51.11,3.66,3.66,0,0,1,1.24.4,1.13,1.13,0,0,1,.48.55,4.29,4.29,0,0,1,.23.61,30.36,30.36,0,0,1,.82,4.92q.26,2.47.41,4.94c.37,6.6.5,13.2.59,19.8l.07,9.9-.1,9.9L193,268.71c-.14-6.6-.33-13.19-.76-19.77-.11-1.64-.21-3.29-.38-4.93a30.08,30.08,0,0,0-.76-4.84c-.12-.37-.25-.8-.52-.92a3.29,3.29,0,0,0-1.1-.36,13,13,0,0,0-2.43-.13,44.93,44.93,0,0,0-4.91.46c-3.26.46-6.5,1.1-9.72,1.8S165.95,241.44,162.75,242.25Z" transform="translate(0 -207.12)"/><path class="cls-12" d="M190.15,528.43c-3.42.14-6.85.19-10.27.28-1.71,0-3.42.07-5.13.09l-5.13.06.71-.71q.33,9.59.51,19.17l.16,9.59.09,9.59q0,9.59,0,19.18c-.08,6.39-.2,12.79-.43,19.19-.4-6.39-.69-12.78-.93-19.17s-.4-12.78-.53-19.17l-.16-9.59-.09-9.59q-.06-9.59,0-19.18v-.74l.71,0,5.13.2c1.71.07,3.42.14,5.13.23C183.31,528.06,186.73,528.2,190.15,528.43Z" transform="translate(0 -207.12)"/><polygon class="cls-12" points="297.33 359.88 558.67 281.22 275.5 363.88 297.33 359.88"/><polygon class="cls-5" points="206.13 403.57 206.46 422.63 216.67 419.8 216.17 401.3 206.13 403.57"/><polygon class="cls-8" points="192.56 405.07 192.89 427.12 206.44 422.53 206.21 403.76 192.56 405.07"/><path class="cls-12" d="M664.82,386.58c-1.63.25-3.27.48-4.88.78l-1.2.26a3.19,3.19,0,0,0-1,.38,2.71,2.71,0,0,0,0,.45c0,.2,0,.4,0,.61,0,.41,0,.82,0,1.23,0,3.29.19,6.59.15,9.89-.19-1.64-.32-3.29-.44-4.93s-.17-3.3-.22-5c0-.41,0-.83,0-1.24,0-.21,0-.41,0-.63a1.35,1.35,0,0,1,.19-.74,3.13,3.13,0,0,1,1.26-.49c.41-.1.82-.16,1.23-.22A44.51,44.51,0,0,1,664.82,386.58Z" transform="translate(0 -207.12)"/><path class="cls-12" d="M662.58,407c-.51,0-1,.09-1.52.18a5.31,5.31,0,0,0-1.43.36,1,1,0,0,0-.26.18.34.34,0,0,0-.11.23,5.58,5.58,0,0,0-.06.72c0,.5,0,1,0,1.52,0,2,0,4.09-.17,6.14-.14-1-.21-2-.26-3.07s-.08-2-.07-3.08c0-.51,0-1,.06-1.55a5.69,5.69,0,0,1,.11-.8.74.74,0,0,1,.25-.43,1.4,1.4,0,0,1,.39-.22A7.61,7.61,0,0,1,662.58,407Z" transform="translate(0 -207.12)"/><path class="cls-12" d="M663.33,427.5a17.68,17.68,0,0,0-2.11.28,3.9,3.9,0,0,0-1,.3c-.15.08-.24.16-.27.27a4.39,4.39,0,0,0,0,.5c0,1.41,0,2.84,0,4.27,0,2.85,0,5.71-.16,8.56-.13-1.43-.19-2.85-.25-4.28s-.06-2.85-.09-4.28,0-2.85.12-4.29a4,4,0,0,1,.08-.57.76.76,0,0,1,.46-.45,4,4,0,0,1,1.08-.25A13.21,13.21,0,0,1,663.33,427.5Z" transform="translate(0 -207.12)"/><polygon class="cls-8" points="665.56 258.88 665.58 263.38 669.1 262.19 669.02 257.74 665.56 258.88"/><polygon class="cls-5" points="672.4 256.65 672.52 261.01 669.1 262.19 669.02 257.74 672.4 256.65"/><polygon class="cls-12" points="668.5 174.38 670.75 301.13 670.25 301.14 668.5 174.38"/><path class="cls-12" d="M210.14,210.46q9.81,11.27,19.79,22.39t20,22.23c13.39,14.74,26.82,29.45,40.52,43.91s27.46,28.86,41.57,42.91c3.48,3.56,7.09,7,10.63,10.49l5.34,5.22,5.42,5.13,5.42,5.14c1.81,1.71,3.6,3.44,5.46,5.09l11.08,10-11.24-9.84c-1.89-1.62-3.71-3.32-5.55-5L353,363.1,347.57,358l-5.39-5.18c-3.57-3.47-7.22-6.86-10.74-10.39l-10.6-10.53-10.46-10.67c-3.5-3.55-6.94-7.14-10.38-10.75s-6.91-7.17-10.31-10.82q-20.47-21.77-40.36-44.08l-9.91-11.18-9.85-11.24Q219.78,221.88,210.14,210.46Z" transform="translate(0 -207.12)"/><path class="cls-12" d="M654,390.5a132.73,132.73,0,0,1-20.38,41.79,113.57,113.57,0,0,1-10,12A102.24,102.24,0,0,1,612,454.68a90.35,90.35,0,0,1-13.09,8.48A92.81,92.81,0,0,1,569.5,473a104.68,104.68,0,0,0,14.95-4.14c2.46-.79,4.81-1.89,7.2-2.87,1.17-.54,2.32-1.13,3.48-1.69l1.74-.86,1.68-1a101.09,101.09,0,0,0,24.35-18.91,127.09,127.09,0,0,0,18.48-24.77,145.73,145.73,0,0,0,7.07-13.8A123.15,123.15,0,0,0,654,390.5Z" transform="translate(0 -207.12)"/><path class="cls-12" d="M354,406.5c5.39,4.33,10.88,8.53,16.43,12.66s11.11,8.22,16.76,12.21c11.29,8,22.75,15.7,34.59,22.83,5.89,3.61,11.86,7.08,17.95,10.34s12.26,6.36,18.57,9.16A162.43,162.43,0,0,0,477.65,481,76.53,76.53,0,0,0,498,484.5a76.78,76.78,0,0,1-20.49-3,161.75,161.75,0,0,1-19.54-7c-6.38-2.69-12.58-5.81-18.69-9.06s-12.12-6.7-18-10.29-11.73-7.35-17.48-11.2-11.45-7.77-17-11.86-11.14-8.21-16.6-12.45S359.29,411,354,406.5Z" transform="translate(0 -207.12)"/><path class="cls-5" d="M164.28,255.56c23-23.54,35.94-43.2,36-43.39l-.33-4.5c-.43.74-49.34,77.35-145,117.44-21.71,9.1-39.86,15.89-55,21v4.25c15.45-5.17,34.1-12.14,56.51-21.52A331,331,0,0,0,164.28,255.56Z" transform="translate(0 -207.12)"/><path class="cls-12" d="M117.14,291.21c9.14-6.25,18-12.89,26.52-20a230.55,230.55,0,0,0,24-22.9,230.34,230.34,0,0,1-24.31,22.54q-12.83,10.51-26.59,19.8a422.72,422.72,0,0,1-57.68,32.6A439.19,439.19,0,0,1,0,345.85v.72a430.17,430.17,0,0,0,59.51-22.41A423.91,423.91,0,0,0,117.14,291.21Z" transform="translate(0 -207.12)"/><path class="cls-12" d="M33.34,304.44c7.14-3,14.2-6.24,21.22-9.54s14-6.69,20.8-10.44,13.44-7.79,19.86-12.17A177.9,177.9,0,0,0,113.61,258c2.92-2.57,5.71-5.27,8.41-8.06s5.29-5.69,7.71-8.73a98,98,0,0,0,6.72-9.5,56.46,56.46,0,0,0,5.22-10.38,56.36,56.36,0,0,1-5.41,10.25,97.68,97.68,0,0,1-6.89,9.33,139.16,139.16,0,0,1-16.25,16.53A215.49,215.49,0,0,1,74.89,283.6c-6.79,3.71-13.73,7.15-20.73,10.47s-14,6.53-21.14,9.64-14.22,6.15-21.4,9.07Q5.83,315.17,0,317.48v.25q5.92-2.19,11.81-4.47Q22.63,309,33.34,304.44Z" transform="translate(0 -207.12)"/><path class="cls-16" d="M798,514.25l13.06-8.45h-.22c-1.88,0-14.53,7.5-14.53,7.5h-4.22c-1.41,0-.47,2.34-1.41,2.81-.47.23-5.8,3.25-11,6.22Z" transform="translate(0 -207.12)"/><path class="cls-16" d="M813.92,505.74l.29.09,2.54-32,5.08-3.62,4.53,2.66c-.32-.37-4.24-4.81-5.44-5s-5.16,4.84-5.16,4.84Z" transform="translate(0 -207.12)"/><path class="cls-16" d="M844,505.33l-11.67-1.17L831.5,493l2.5-.83.67-3.33,18.18-1.06c-7.43,0-18.41.21-19,.21-.94,0-.47,3.28-.47,3.28s-2.34.47-2.81.47,0,13.59,0,13.59l.63-.16Z" transform="translate(0 -207.12)"/><path class="cls-16" d="M852.83,517.33c-.5,0-32.83,2-32.83,2l-10,9.33,11.17-7Z" transform="translate(0 -207.12)"/><path class="cls-16" d="M860.83,491.83l35.67,1.5,1.5-1.67L899,480l2.24-1.87c-.47-.28-4.09-.11-4.67,0s.35,13.24-.12,13.59-36.1.12-36.45-.18l-2,5.77Z" transform="translate(0 -207.12)"/><polygon class="cls-16" points="917.49 295.87 919 298.38 887.5 306.13 917.49 295.87"/><path class="cls-17" d="M651.92,521.24s7.79,2,11.54,2a30.33,30.33,0,0,0,8.08-1.44Z" transform="translate(0 -207.12)"/><path class="cls-17" d="M589.87,523.55c6.64.58,10.68,1.15,11.54,1.15s9.81-1.44,9.81-1.44Z" transform="translate(0 -207.12)"/><path class="cls-17" d="M706.7,482.75l39-.12s-17.67.66-20.15.66,11.1.7,14.6.45-5.84.94-13.73.74-20.88-1.35-20.88-1.35-6,.08-10.22.08a35.43,35.43,0,0,1-6.43-.45Z" transform="translate(0 -207.12)"/><path class="cls-17" d="M594.14,515.37s11.56,1.83,16.13,3S638,517.5,638,517.5Z" transform="translate(0 -207.12)"/><path class="cls-17" d="M630.66,533.32l30.73-.3s-10,2.74-13.08,2.74S630.66,533.32,630.66,533.32Z" transform="translate(0 -207.12)"/><path class="cls-17" d="M662.71,543.18s46.25-.41,48.38-.41-19.78,2.34-23.12,2.61S662.71,543.18,662.71,543.18Z" transform="translate(0 -207.12)"/><path class="cls-17" d="M746.24,491.58c2.41,0,38,.2,40.93,0s-33.46,2.17-36.59,2A5.64,5.64,0,0,1,746.24,491.58Z" transform="translate(0 -207.12)"/><path class="cls-17" d="M678.23,486.84c2.41,0,38,.2,40.93,0s-33.46,2.17-36.59,2A5.64,5.64,0,0,1,678.23,486.84Z" transform="translate(0 -207.12)"/><path class="cls-17" d="M613,513.84s26.17,1.52,33.47,2.13,18-1.83,18-1.83Z" transform="translate(0 -207.12)"/><path class="cls-17" d="M640.42,503s12,1.28,15.34,1.79,8.23-1.53,8.23-1.53Z" transform="translate(0 -207.12)"/><path class="cls-17" d="M468.29,572.3a86.62,86.62,0,0,0,10.6,1.28,39,39,0,0,0,7.42-.92Z" transform="translate(0 -207.12)"/><path class="cls-17" d="M663.53,508.91S671.74,511,675.7,511a32,32,0,0,0,8.52-1.52Z" transform="translate(0 -207.12)"/><path class="cls-17" d="M521.18,532.65a36.8,36.8,0,0,0,8.89,1.21c4.64,0,13.72-.5,13.72-.5s6-.8,4.83-.8Z" transform="translate(0 -207.12)"/><path class="cls-17" d="M425.58,565.22a38.7,38.7,0,0,0,14,3c7.3,0,21.6-1.25,21.6-1.25s9.43-2,7.61-2S425.58,565.22,425.58,565.22Z" transform="translate(0 -207.12)"/><path class="cls-17" d="M534,551.46s28.49,0,35.07-.42l6.58-.42S561.41,553,555.5,553,534,551.46,534,551.46Z" transform="translate(0 -207.12)"/></g></g></svg>