<svg xmlns="http://www.w3.org/2000/svg" viewBox="0 0 1366 712.2"><defs><style>.cls-1{isolation:isolate;}.cls-2{fill:#30145a;}.cls-3{fill:#45227c;}.cls-4{fill:#ab7a69;}.cls-5{fill:#471c66;}.cls-6{fill:#82504d;}.cls-7{fill:#ab8750;}.cls-8{fill:gray;mix-blend-mode:multiply;}.cls-9{fill:#37262f;}.cls-10{fill:#573c3b;}.cls-11{fill:#312222;}.cls-12{fill:#1b131e;}.cls-13{fill:#1e1917;}.cls-14{fill:#452b2a;}.cls-15{fill:#362e29;}.cls-16{fill:#2a2420;}.cls-17{fill:#694b4a;}.cls-18{fill:#301c1c;}.cls-19{fill:#4b3157;}.cls-20{fill:#201a12;}.cls-21{fill:#5d3a45;}.cls-22{fill:#4b2e3c;}.cls-23{fill:#765261;}.cls-24{fill:#1d1724;}.cls-25{fill:#8f615c;}.cls-26{fill:#bb718c;}.cls-27{fill:#724a4e;}.cls-28{fill:#5c3a45;}.cls-29{fill:#732134;}.cls-30{fill:#9a3f56;}.cls-31{fill:#19192d;}.cls-32{fill:#070b1e;}.cls-33{fill:#060a19;}.cls-34{fill:#9d7467;}.cls-35{fill:#b5927c;}.cls-36{fill:#332434;}.cls-37{fill:#1a1717;mix-blend-mode:screen;}.cls-38{fill:#b5a392;}.cls-39{fill:#714e44;}.cls-40{fill:#a57667;}.cls-41{fill:#17182d;}.cls-42{fill:#1c1e2f;}.cls-43{fill:#15122a;}.cls-44{fill:#e0b997;}.cls-45{fill:#2e1f29;}.cls-46{fill:#362338;}.cls-47{fill:#bf6c4e;}.cls-48{fill:#592f2f;}.cls-49{fill:#26162a;}.cls-50{fill:#e19c86;}.cls-51{fill:#2d1a31;}.cls-52{fill:#301d29;}.cls-53{fill:#603a3a;}.cls-54{fill:#7c5c32;}</style></defs><title>Layer 5</title><g class="cls-1"><g id="Ñëîé_9" data-name="Ñëîé 9"><path class="cls-2" d="M1362.3,135.54c.28-4.68.48-9.08.61-13,.64,0,1.71.77,3.09,2.16V65c-9.74-3.33-20.1-6.78-24.88-8.33-9.84-3.19-67.15,3.56-77.69,4.27s-76,30.14-76,30.14l-39,62.73a14.23,14.23,0,0,0,1,16.46c7,8.66,17.46,21.72,18.89,24.15,2.17,3.7,26.71-3.72,26.71-3.72l24.78-5.13c.33,2.12.69,4.3,1.05,6.52-6.14.41-12.61,1.55-17.71,4.8-7.34,4.67-22,20.39-29.54,28.75a15,15,0,0,0-3.7,12.29l2.41,15.91s32.6,26.69,37.4,26.37,18.85-6.08,26.58-5.64c1.32.08,3.5.06,6.22,0,12.8,32.95,34.56,82.06,54,96.54-.66,10.46-2.2,87,.25,109.73,2.56,23.76,7,111.59,7.77,115.47l34.94,2.11c-.2-.95-24.28-106.64-26.81-130.13s3-110.55,3.07-111.42l0-.4c5.66,2.63,11,4.46,11,4.46s20.19-.4,24.6-6.47,4-26.26.42-36.61,2.66-31.95-.47-35.59-7.93-17.76-12-20.38-9.07,8.31-10.79,11.32c-.68,1.19-4,6-8.09,11.91-.92-11-2.19-25.12-3.07-39.47,3.11-5.21,9.24-15.48,15.75-26.08l5.4,1.94s13.36,12.58,19.5,17.94c1.57,1.37,4.37,2.22,7.77,2.68V136.61Q1364.24,136,1362.3,135.54Zm-59.47,210.58c.14,2,2.36,4.14,5.4,6.14-.28,1.5-.54,2.88-.79,4.12-3.27-.31-7.16-1.94-10.88-6.72-14-17.91-32.94-51-45.59-75.51,13.66-.76,31.42-2.37,33.28-3.8,2.75-2.11-1.61-24-2.19-32.59a22.53,22.53,0,0,1,1.22-8.08c3.67,10.68,7.35,20.8,10.39,28,6.91,16.26,12.85,35.73,15.27,44-2.38,3.33-4.42,6.15-5.69,7.86C1298,316.61,1302.38,339.41,1302.83,346.12ZM1312.5,213c-.31,25-.68,55.13-.06,74.34-3.7-10-9-23.86-14-35.71-3.38-8-8.12-18.42-12.78-29.22.95-3.29,1.46-6.58.48-9.93-1.07-3.64-4.43-7.13-8.69-10-.94-2.43-1.82-4.81-2.63-7.11a6.22,6.22,0,0,0,1.53.47c8.75,1.34,30.81,14.29,30.81,14.29l5.35,1.92Zm4.4,19.77c-.28-6.7-.43-13.24-.36-19.3l11.92,4.29C1323.19,224.65,1318.74,230.39,1316.9,232.76ZM1359.68,135c-15.67-3-37.29-1-43.17-.61-7.67.52-44.72,7.82-55.84,14.35s-4.4,20.51-4.4,20.51,7.34,16.35,14.77,23.42l2.38,7.36a44.8,44.8,0,0,0-14.45-5c-9.71-1.27-14.7-3.82-22.37-3.31-2.65.18-6.24.08-10.23.13-.54-3.24-1-6.41-1.51-9.43,6.34-7.33,24.48-28.55,28-35.12,4.28-8,34.36-18.68,43.56-25.07,8.32-5.78,52-.56,63.85.25C1360.15,126.24,1360,130.48,1359.68,135Z" transform="translate(0 -55.8)"/><path class="cls-3" d="M1190.18,192.07l1.15-5.07-16.67-8.67s9.33-29.33,10.67-32,54-56.67,54-56.67l99.77-33.45c-13.92-2-65.71,4-75.68,4.7-10.54.71-76,30.14-76,30.14l-39,62.73a14.23,14.23,0,0,0,1,16.46c7,8.66,17.46,21.72,18.89,24.15C1170,197,1182.9,194,1190.18,192.07Z" transform="translate(0 -55.8)"/><path class="cls-4" d="M1150.86,171.88,1176,116l2.71-10.83-30.19,48.62a14.23,14.23,0,0,0,1,16.46Z" transform="translate(0 -55.8)"/><path class="cls-4" d="M1177.37,194.91l-17.31-11.54c4.12,5.21,7.59,9.69,8.37,11S1172.94,195.61,1177.37,194.91Z" transform="translate(0 -55.8)"/><path class="cls-5" d="M1366,532.81c-90.81-.42-376.93-.22-474,18.19,0,0-248.4,78.86-437.9,217H1366Z" transform="translate(0 -55.8)"/><path class="cls-6" d="M1366,535.92c-72.19,7.69-267.56,29.57-390.42,53.66C893,619.31,736.84,717.76,659.65,768H1366Z" transform="translate(0 -55.8)"/><path class="cls-7" d="M1028.49,695c-49.47,30-83.39,56.46-102.78,73H992.4c32.39-24.09,64-45.54,94.35-64.61Z" transform="translate(0 -55.8)"/><path class="cls-7" d="M1326.62,567.35l15.11,12.2q13.17-4.5,24.27-7.92V556.57Q1345.84,561.79,1326.62,567.35Z" transform="translate(0 -55.8)"/><path class="cls-7" d="M1217.63,603.64l34,11.48c27.08-12.05,51.59-21.76,72.94-29.51l-19.94-11.73C1273.72,583.33,1244.74,593.32,1217.63,603.64Z" transform="translate(0 -55.8)"/><path class="cls-7" d="M1194.06,612.87c-37.95,15.29-72,31.08-102.12,46.63l49.34,11.35c32.22-18.23,62.61-33.68,90.61-46.75Z" transform="translate(0 -55.8)"/><polygon class="cls-8" points="1229.29 540.17 1270.67 549.87 1216 559.2 1101.69 542.63 1082.2 543.6 1114.6 556.32 1125.33 560.53 1062.53 554.91 1051.4 556.26 1063.33 560.2 1062.03 562.44 1221 603.2 1298 600.2 1366 618.02 1366 548.3 1246.11 539.79 1229.29 540.17"/><path class="cls-9" d="M1091.45,390.94a9.65,9.65,0,0,0-.35-4.39,4.39,4.39,0,0,0-3-2c-2.88-.41-5.69,2.55-6.28,6.63a9.65,9.65,0,0,0,.35,4.39,4.39,4.39,0,0,0,3,2C1088.05,398,1090.86,395,1091.45,390.94Z" transform="translate(0 -55.8)"/><polygon class="cls-10" points="1238.64 348.95 1234.47 329.33 1183.56 313.77 1168.31 350.75 1238.64 348.95"/><path class="cls-11" d="M1152.08,415.57c-.91-1.5-.42-26.46-.42-26.46l32.26-20-14.71,38.31-9,.9Z" transform="translate(0 -55.8)"/><path class="cls-10" d="M1125,430.9s-10.44,6.14-14.42,5.68-3.94-19.38-3.94-19.38l19.57-1.59,4.8-18.51,20.71-2.49.34,18.26Z" transform="translate(0 -55.8)"/><path class="cls-12" d="M1226.54,374.44l-3,7.64-39.66-12.92-32.26,20,.25,6-17.58,1.55S1113,375,1114.21,371.39c2.71-8.12,34.84-14.37,35.69-13.65s25.43,2.66,36.58,4.11S1226.54,374.44,1226.54,374.44Z" transform="translate(0 -55.8)"/><path class="cls-13" d="M1274.71,405.65s-1.21-20.16-8-25.91-16-12.88-19.09-11.84-12.52,1-17.16,2.18-6.94,11.6-6.94,11.6l11.27,4.3,2,18.77Z" transform="translate(0 -55.8)"/><path class="cls-14" d="M1115.89,435.4c6.69-5.79,22.63-19.49,26.6-22,5.06-3.22,7.35-17.46,7.35-17.46l1.91-.52.32,17.46-27.05,18A74.27,74.27,0,0,1,1115.89,435.4Z" transform="translate(0 -55.8)"/><path class="cls-15" d="M1230.48,370.09c4.63-1.17,14.09-1.15,17.16-2.18s12.32,6.09,19.09,11.84a10,10,0,0,1,1.36,1.45l-9.32,1.86-9.65-11-19.36-1.66A3.86,3.86,0,0,1,1230.48,370.09Z" transform="translate(0 -55.8)"/><path class="cls-16" d="M1268.09,381.19c5.57,7.09,6.62,24.46,6.62,24.46l-13.68-.33,1.87-7.11-4.14-15.17Z" transform="translate(0 -55.8)"/><polygon class="cls-17" points="1231.19 334.84 1187.49 314.98 1234.47 329.33 1238.64 348.95 1232.55 349.11 1231.19 334.84"/><path class="cls-18" d="M1152.08,412.87l-.39-.57c-.35-7.13,0-23.19,0-23.19l32.26-20-29.48,21.72Z" transform="translate(0 -55.8)"/><path class="cls-19" d="M1149.89,357.74c.85.72,25.43,2.66,36.58,4.11,9.88,1.29,34.32,10.49,39.64,12.5l-1,2.5s-27.66-9.65-38.69-11-26.89-4.83-40.67-2.76-31.5,8.32-31.5,8.32C1116.91,363.27,1149,357,1149.89,357.74Z" transform="translate(0 -55.8)"/><polygon class="cls-14" points="1106.67 361.4 1119.51 364.02 1126.24 359.81 1106.67 361.4"/><polygon class="cls-20" points="1266.72 349.58 1262.45 326.16 1245.03 313.18 1245.63 312.38 1263.36 325.59 1267.71 349.4 1266.72 349.58"/><path class="cls-21" d="M1288.89,407.57c8.32,5.72,28.22,89.45,35.07,113.73S1334.23,574,1334.23,574s-68,11.75-118.07,9.7-98.11-5.19-98.11-5.19,33.77-165.3,41.74-171.67C1163.47,403.95,1281.08,402.19,1288.89,407.57Z" transform="translate(0 -55.8)"/><path class="cls-4" d="M1159.79,406.88s-42,26.78-46,30-16.85,54.21-16.85,54.21S1068,527,1067,528.56s.15,38.77,1.71,39.74,7.77,3.85,7.77,3.85-1.47-31.59,1.67-29.13,8.59,30.86,8.59,30.86l12.82,2.16s.22-43.37,3.38-39.9,9.44,42.06,9.44,42.06l5.62.34S1154.25,409.09,1159.79,406.88Z" transform="translate(0 -55.8)"/><path class="cls-22" d="M1286.5,412.74s22,69.23,20,71.84-157.83,10.9-159.57,3.81,14.57-74.93,19.13-76.09S1283.28,407.74,1286.5,412.74Z" transform="translate(0 -55.8)"/><path class="cls-23" d="M1282.63,420s-35.73,16.39-38.75,17.5-6.94,40.51-6.94,40.51l60.25,1.75S1285.23,421.45,1282.63,420Z" transform="translate(0 -55.8)"/><path class="cls-23" d="M1238.32,439.2s-7.21,31.34-8.13,34.94l-.91,3.6-82.54,3.52s7-39.5,9.49-40.59S1233.69,437.81,1238.32,439.2Z" transform="translate(0 -55.8)"/><path class="cls-24" d="M1307.17,480.48c-7.18-1.31-73.8-2.61-82-2.37s-77,2.84-78.47,3.14-1.51,9-1.51,9,33.83,5.1,80.17,2.42c10.21-.59,83.52-4.82,83.25-5.58S1308.83,480.78,1307.17,480.48Z" transform="translate(0 -55.8)"/><path class="cls-12" d="M1270,449.72c-4.55-.77-21.16.39-22.4,1.44s-7.72,23.19-8.16,25.25.32,2.29.32,2.29l43.47.79S1275.14,450.58,1270,449.72Z" transform="translate(0 -55.8)"/><path class="cls-12" d="M1200.45,452.33c2.62,2.22,5.58,26.72,5.58,26.72l-48.83,1.9s7.33-27.28,10.36-28.13S1197.41,449.75,1200.45,452.33Z" transform="translate(0 -55.8)"/><path class="cls-4" d="M1265.33,522.56s1.07,18.33-5,19.79-49.45,1.24-51,.27-2.09-18.56-2.09-18.56Z" transform="translate(0 -55.8)"/><path class="cls-25" d="M1260.14,542.39c-6.13,1.31-43.11,1.22-49.81.44-.81-4.67-1.1-14.46-1.1-14.46L1262,527S1262.6,537.36,1260.14,542.39Z" transform="translate(0 -55.8)"/><path class="cls-26" d="M1128.11,561.28s32.15.18,66.27,2.59c30,2.12,116.74-5.16,137.3-7,1.7,10.08,2.54,17.14,2.54,17.14s-68,11.75-118.07,9.7c-35.67-1.47-70.3-3.48-87.27-4.52Z" transform="translate(0 -55.8)"/><path d="M1228.42,584.23c-4.18,0-8.28-.08-12.26-.24-35.52-1.46-69.93-3.46-87.28-4.52h-.22l-.8-18.43h.26c.32,0,32.55.2,66.29,2.59,30.25,2.13,119.65-5.42,137.26-7l.23,0,0,.23c1.68,10,2.54,17.08,2.54,17.15l0,.24-.23,0C1333.65,574.4,1276.16,584.23,1228.42,584.23ZM1129.13,579c17.42,1.06,51.68,3,87,4.5,48,2,113.34-8.9,117.78-9.65-.16-1.3-1-7.84-2.47-16.66-18.15,1.58-107,9.07-137.11,6.94-32.11-2.27-62.85-2.56-66-2.58Z" transform="translate(0 -55.8)"/><path class="cls-27" d="M1216.16,583.74c-50.06-2.06-98.11-5.19-98.11-5.19s10-46.31,20.07-90.87c7.87,16.44,27.47,60.23,27.47,60.23l117.69,7.15,33.35-61.47c3,11.57,5.6,21.56,7.34,27.72,6.86,24.28,10.27,52.75,10.27,52.75S1266.22,585.8,1216.16,583.74Z" transform="translate(0 -55.8)"/><path class="cls-28" d="M1313.78,520.44s9.43,15,9.78,18.39-4.33,17.36-9.44,16.78-11.4-15.91-11.4-15.91S1309.83,518.13,1313.78,520.44Z" transform="translate(0 -55.8)"/><path class="cls-29" d="M1313.29,522.77s7.44,11.83,7.71,14.5-3.41,13.69-7.44,13.23-9-12.55-9-12.55S1310.18,520.95,1313.29,522.77Z" transform="translate(0 -55.8)"/><path class="cls-30" d="M1311.39,548.46a2,2,0,0,1-.64.2,36.94,36.94,0,0,1-5.16-8.42l13.54-1.39S1315,546.63,1311.39,548.46Z" transform="translate(0 -55.8)"/><path class="cls-28" d="M1141.95,524.35s-9.06,16.56-9.21,20.18,5.72,18.18,11.12,17.24,11.1-17.65,11.1-17.65S1146,521.64,1141.95,524.35Z" transform="translate(0 -55.8)"/><path class="cls-29" d="M1141.14,528s-6.71,12.26-6.82,14.94,4.23,13.46,8.23,12.76,8.21-13.07,8.21-13.07S1144.14,526,1141.14,528Z" transform="translate(0 -55.8)"/><path class="cls-30" d="M1144.59,553.51a2,2,0,0,0,.65.16,36.94,36.94,0,0,0,4.64-8.71l-13.6-.57S1140.91,551.9,1144.59,553.51Z" transform="translate(0 -55.8)"/><path class="cls-31" d="M1342.48,560s-1.53,16.88-5,20-89.8,16.49-142,11.95-66.06-8.2-66.06-8.2l-1.13-20.37s88.41,5,109.85,5.35S1342.48,560,1342.48,560Z" transform="translate(0 -55.8)"/><path class="cls-32" d="M1246.11,595.59a46.4,46.4,0,0,1-16.82.38c-.91-.15-1-3.54-1-3.54l18.35-.43S1247,595.38,1246.11,595.59Z" transform="translate(0 -55.8)"/><path class="cls-33" d="M1328.87,582.37s-.77,25-3.29,26.12-33.58,3.06-36.16,2.11-5.24-21.27-5.24-21.27Z" transform="translate(0 -55.8)"/><path class="cls-32" d="M1328.52,590c-.44,7.46-1.34,17.8-2.93,18.5-2.52,1.1-33.58,3.06-36.16,2.11-1-.38-2.07-3.85-3-7.88-.56-3.41-.9-6-.9-6Z" transform="translate(0 -55.8)"/><path class="cls-32" d="M1103,536.15s2.53,66.76,5.76,72.27,37,3.35,38.38-.27,2.29-21.37,2.29-21.37l-20-3-.54-4.59-16.46-1S1105.42,536.2,1103,536.15Z" transform="translate(0 -55.8)"/><path class="cls-32" d="M1078.63,544.41c-1.67-1.57.51,54.7,3.58,55s18.82,2.41,19.49-1c1-5.34-1-44.74-1-44.74L1099.61,576l-12.82-2.16S1080.2,545.89,1078.63,544.41Z" transform="translate(0 -55.8)"/><path class="cls-34" d="M1145.29,420.71s-10.28,65-11.37,66.92-29.58,8.93-33.5,5.61,12.51-54.33,16.28-56.36S1145.25,419.57,1145.29,420.71Z" transform="translate(0 -55.8)"/><path class="cls-35" d="M1068,565c-1.13-9.33-1.77-35.13-1-36.42,1-1.56,29.86-37.51,29.86-37.51s11.31-44.83,16-53.07L1100,491.72s-21.69,29.35-28,37.2C1067.38,534.74,1067.59,554.94,1068,565Z" transform="translate(0 -55.8)"/><path class="cls-36" d="M1138.65,458.28s-10.2.05-12.19,1.64-9.72,32.69-9.72,32.69,15.24-2.25,17.2-5S1138.65,458.28,1138.65,458.28Z" transform="translate(0 -55.8)"/><path class="cls-37" d="M1173.06,427.71c8.31,2.63,66,45.58,87.94,62.09-12.85.73-27.26,1.4-41.44,1.9l-.18-.09c-10.36-5.3-61.32-36.92-61.32-36.92Z" transform="translate(0 -55.8)"/><path class="cls-37" d="M1225.1,414.2c9.76,2.26,62.21,66.48,62.21,66.48s-6.25,6.77-6.89,6.82c-1-1.17-2.24-2.44-3.74-3.95-7.89-7.92-81.18-69.48-81.18-69.48S1222.62,413.62,1225.1,414.2Z" transform="translate(0 -55.8)"/><path class="cls-24" d="M1119.05,483.48s-14.94,1.84-16.09,1.84-3,6.69-2.81,7.54,6.35,1.54,11.43.85,5.14-1.08,5.14-1.08Z" transform="translate(0 -55.8)"/><path class="cls-22" d="M1145.29,420.71l-3,18.64-29.41,4.6s2.27-6.09,3.85-7.07C1119.38,435.22,1145.29,420.71,1145.29,420.71Z" transform="translate(0 -55.8)"/><path class="cls-38" d="M1108.32,467.62c-1.66,4.73-5.84,17.88-8.17,25.23-2.77-5.67,12.88-54,16.55-56a10.45,10.45,0,0,0,1.67-.86C1113.77,447.86,1110.35,461.81,1108.32,467.62Z" transform="translate(0 -55.8)"/><path class="cls-39" d="M1079.93,486.21a31,31,0,0,0-1.24,9.6c.16,5.35,7.49,7.43,10.16,7s5.65-2.85,5.65-2.85l3.85.65.27-3.83Z" transform="translate(0 -55.8)"/><path class="cls-40" d="M1098.61,496.74l-.06.88-3.71-.63s-3,2.39-5.65,2.85-10-1.61-10.16-7a29.91,29.91,0,0,1,.07-3,26.65,26.65,0,0,1,.83-3.63Z" transform="translate(0 -55.8)"/><polygon class="cls-41" points="1071.65 498.39 1071.29 511.79 1065.96 512.72 1066.37 500.84 1071.65 498.39"/><path class="cls-37" d="M1145.29,420.71,1106.41,494s10.57-.8,12.29-2.07c2.25-1.65,24.42-58.94,24.42-58.94Z" transform="translate(0 -55.8)"/><polygon class="cls-37" points="1131.23 372.99 1109.17 409.64 1103.83 425.75 1136.23 380.68 1145.29 364.91 1131.23 372.99"/><path class="cls-42" d="M1128.43,563.45c3.43.19,88.73,5,109.73,5.34,21.44.37,104.32-8.77,104.32-8.77s0,.42-.12,1.14a27.34,27.34,0,0,1-11.9,4.82c-8.27.92-79.05,6.43-102.49,6.89s-97.89-7.35-97.89-7.35Z" transform="translate(0 -55.8)"/><path class="cls-43" d="M1195.5,592c-52.18-4.54-66.06-8.2-66.06-8.2l-1.13-20.37,2.44.14c.83,7.28,2.45,17.88,4.85,18.49,3.68.92,76.75,7.35,90.08,7.35s100.19-9.65,105.25-11c3.56-1,8.49-11.52,11.09-18.31l.46-.05s-1.53,16.88-5,20S1247.67,596.56,1195.5,592Z" transform="translate(0 -55.8)"/><path class="cls-38" d="M1157.2,412.58s-15.17,45.16-18.84,65.15c-1.31,7.15-12.06,57.68-14.36,67.33s-5.86,33.32-5.86,33.32Z" transform="translate(0 -55.8)"/><path class="cls-38" d="M1078.69,495.81a31,31,0,0,1,1.24-9.6l16.37,9.23c-5-2.49-13.82-6.75-15-6.38-1.72.52-1.55,7.07.34,9.31s9.65,3.27,10.34,2.93,3.1-1.72,3.1-1.72l1,.63-1.59-.27s-3,2.39-5.65,2.85S1078.85,501.16,1078.69,495.81Z" transform="translate(0 -55.8)"/><path class="cls-38" d="M1123.65,517.14c-3.85,1.55-7.75,2.9-11.68,4.19s-7.87,2.49-11.83,3.66-7.94,2.24-12,3.24-8,1.95-12.11,2.7c3.85-1.55,7.75-2.91,11.67-4.2s7.87-2.49,11.83-3.66,7.95-2.24,12-3.23S1119.57,517.9,1123.65,517.14Z" transform="translate(0 -55.8)"/><path class="cls-31" d="M1112,610.39a5.68,5.68,0,0,1-3.29-2c-3.23-5.51-5.76-72.27-5.76-72.27s2.94,9.75,5.56,20.69c2.09,10.63,3.88,21.37,3.88,21.37C1113.28,589.28,1113.75,602.68,1112,610.39Z" transform="translate(0 -55.8)"/><path class="cls-31" d="M1084,599.53c-2.76-.23-.82,0-1.8-.13-3.07-.29-5.25-56.56-3.58-55a1,1,0,0,1,.09.13c.66,1.95,1.87,5.59,3.17,9.82,2.32,8.57,4.89,19.52,4.89,19.52C1087.93,582,1085.79,593.07,1084,599.53Z" transform="translate(0 -55.8)"/><path class="cls-38" d="M1106.76,565.4a86.43,86.43,0,0,1,1.36,9.78,85.36,85.36,0,0,1,.36,9.87,85.38,85.38,0,0,1-1.36-9.78A86.38,86.38,0,0,1,1106.76,565.4Z" transform="translate(0 -55.8)"/><path class="cls-38" d="M1080.22,563.68a25.64,25.64,0,0,1,.67,5.33,25.34,25.34,0,0,1-.33,5.36,25.34,25.34,0,0,1-.67-5.33A25.63,25.63,0,0,1,1080.22,563.68Z" transform="translate(0 -55.8)"/><rect class="cls-20" x="1088.61" y="397.98" width="80.59" height="1" transform="translate(407.31 1297.94) rotate(-72.37)"/><rect class="cls-20" x="1165.2" y="354.28" width="1" height="24.45" transform="translate(130.76 960.38) rotate(-49.57)"/><rect class="cls-20" x="1191.58" y="368.25" width="11.66" height="1" transform="translate(-0.69 679.46) rotate(-34.13)"/><rect class="cls-20" x="1210.18" y="374.25" width="1" height="31.05" transform="translate(-56.32 445.24) rotate(-22.86)"/><path class="cls-9" d="M1119.81,443.94l-1,6.23.93.26s.56-2.19.76-2.72a13.49,13.49,0,0,1,.7-1.39l-.93,4.9a6.83,6.83,0,0,0,1.06.33c.2,0,2.45-.73,2.45-.73l3.64-12-3.51-1.72Z" transform="translate(0 -55.8)"/><path class="cls-44" d="M1118.82,450.17l.18.05.79-3.86a3.4,3.4,0,0,0,1.24-1.43c.09-.22.46-.11.93-.79,1.27-1.81-.44-2.21-.44-2.21l-.81.53-.89,1.48Z" transform="translate(0 -55.8)"/><path class="cls-9" d="M1124.65,437.05l-4.77,4a6.93,6.93,0,0,1-1.39,4.37,9.29,9.29,0,0,1-1.72,1.79,1.73,1.73,0,0,0,1.66.17c.79-.4,2.09-2.65,2.09-2.65.86,0,2.62-1.76,2.68-3.08s2.32-4,2.32-4Z" transform="translate(0 -55.8)"/><path class="cls-44" d="M1123.63,437.91l-3.75,3.12a6.93,6.93,0,0,1-1.39,4.37,9.29,9.29,0,0,1-1.72,1.79,1.73,1.73,0,0,0,1.66.17,1.5,1.5,0,0,0,.28-.2,3.25,3.25,0,0,1-1.37.05c.76-.84,2.57-3,2.78-4.3a8.94,8.94,0,0,0,.17-1.81l3.21-2.53Z" transform="translate(0 -55.8)"/><path class="cls-44" d="M1121.54,451.52l.32-.09.67-3.1.65-1.55-.82,1.57Z" transform="translate(0 -55.8)"/><path class="cls-44" d="M1121.2,446.33l-.93,4.9.21.08.56-3.52.93-2.53Z" transform="translate(0 -55.8)"/><polygon class="cls-45" points="1123.79 381.28 1124.72 384.32 1123.19 385.82 1122.82 388.41 1124.38 390.56 1123.07 395.07 1123.79 395.03 1127.43 383.04 1123.79 381.28"/><polygon class="cls-46" points="1144.3 365.39 1130.58 387.89 1123.38 381.37 1127.66 363.37 1144.3 365.39"/><path class="cls-9" d="M1062.5,405.42s-3.34-11.69-3.34-13.43,2.88-3.73,3.1-5.48a6.3,6.3,0,0,0-1.14-3.67s2.48-6,2.92-6.61-4.93-2.25-3-3.56,11.16-3.12,15.29-.94,9.9,3.53,12,8.93c3.17,8.22-7,25.92-7,25.92Z" transform="translate(0 -55.8)"/><path class="cls-45" d="M1087.56,384.7s-2.53-7.76-7.09-6.24-9.11-4.39-15,14c0,0,2.53,9.62,7.59,8.44,3.1-.72,3.66-1.44,3.64-1.9l4.32,7.56.36,0s1.07-1.88,2.41-4.69l1.39-4.32s.3-.19.73-.53a44.64,44.64,0,0,0,2.84-9.87A13.53,13.53,0,0,0,1087.56,384.7Z" transform="translate(0 -55.8)"/><path class="cls-47" d="M1075.94,368.27a9,9,0,0,1,9.9,3.28c1.52,2.11,2.77,9.75,2.77,9.75s-1.25-3.23-3-4.55a35.59,35.59,0,0,0-3.16-2.11s.16-6-3.23-4.22c-2.07,1.07-5.14,10.21-5.14,10.21l-6,.18S1071.2,369.66,1075.94,368.27Z" transform="translate(0 -55.8)"/><path class="cls-44" d="M1070.3,377.1l-6.27-.87c-.44.65-2.92,6.61-2.92,6.61a8,8,0,0,1,.62,1.12l-.1-1.45,4-5.29Z" transform="translate(0 -55.8)"/><path class="cls-44" d="M1061.79,402.91c-.33-3.35-1-10.14-1.17-11.07-.22-1.24,1.35-4.27,1.35-4.27v-.22c-.77,1.52-2.81,3.17-2.81,4.64C1059.15,393.21,1060.81,399.37,1061.79,402.91Z" transform="translate(0 -55.8)"/><path class="cls-48" d="M1085.84,371.55a9,9,0,0,0-2.47-2.28c-1.64-.63-4.52-1.47-6.75-.82-4,1.15-7.07,9.51-7.91,12.12l5.34.07s3.07-9.15,5.14-10.21a1.67,1.67,0,0,1,2.47.51c2.47-.33,2.34,4.5,2.34,4.5a35.6,35.6,0,0,1,3.16,2.11,5.62,5.62,0,0,1,.9.88C1087.55,376,1086.74,372.81,1085.84,371.55Z" transform="translate(0 -55.8)"/><ellipse class="cls-47" cx="1070.58" cy="387.88" rx="8.34" ry="6.05" transform="matrix(0.14, -0.99, 0.99, 0.14, 534.28, 1336.55)"/><path class="cls-48" d="M1077.23,388.7a11.35,11.35,0,0,0-.48-5.38,5.74,5.74,0,0,0-3.83-2.5c-3.7-.53-7.27,3.08-8,8.06a11.35,11.35,0,0,0,.48,5.38,5.74,5.74,0,0,0,3.83,2.5C1072.93,397.3,1076.51,393.69,1077.23,388.7Z" transform="translate(0 -55.8)"/><path class="cls-9" d="M1085.81,371.84c-.46-.74-3.39-3.73-5.78-2.29a2.85,2.85,0,0,0-1.22,1.34,1.54,1.54,0,0,1,.36-.31c3.35-1.7,3.22,4.72,3.22,4.72a35.39,35.39,0,0,1,3.15,2.36c1.77,1.48,3,5.09,3,5.09S1087.69,374.86,1085.81,371.84Z" transform="translate(0 -55.8)"/><path class="cls-46" d="M1102.13,438l42.17-16.82-1.57-8-7.42-3-40.87,7.64-.53-.35,1-4.28s2.38-1.9.71-3.33-15.82-5.23-15.82-5.23l.13-.32H1062.5l.24.44L1052,412.23l2.38,6.19a62.38,62.38,0,0,1-9,4.76c-3.81,1.43-5.71,12.85-5.71,12.85l3.33,3.81s-2.38,12.37-4.76,15.23-4.76,16.65-4.76,16.65l10.47,22.36-3.81,4.76s5.23,5.23,5.23,9,6.19,20,6.19,20l1,20.89s3.18,16.08,2.7,22.27,5.37,28.68,6.33,31.53-2.38,15.7.48,15.7,10.94-.48,10.94-.48l-2.85-14.27-.48-26.64s-1.43-10,1-12.85c1.62-1.94,3.68-14.68,4.83-22.62a13.43,13.43,0,0,1-.36-1.52c-1.15-7.25,2.83-14.27,6-20.51,4.29-8.4,8.9-16.66,13.09-25.1l0-.06,1.57-35S1099.73,447.52,1102.13,438Z" transform="translate(0 -55.8)"/><path class="cls-46" d="M1057.7,542.78l-4,64.34.45.45s-3.6.45-2.7,4.5h11.7l7.65-61.64Z" transform="translate(0 -55.8)"/><path class="cls-49" d="M1098.86,435.48s-17.55,16.2-22.94,23.62-12.15,23.28-12.15,23.28l3.71,4.72S1084.69,443.58,1098.86,435.48Z" transform="translate(0 -55.8)"/><path class="cls-49" d="M1101.56,433.45l-8.77,16.2-31.72,42.52s4,16.53,11.47,15.52,21.6-13.5,21.6-13.5l1.57-35s4-11.69,6.42-21.19l35.26-14.07,5.33-2.64Z" transform="translate(0 -55.8)"/><path class="cls-49" d="M1066.47,573.26l-5.17-1.35,6.75,4.27L1067.6,606l-5.29,3.15.22,1.57,6.64-2-5.4.51,6.9-3-.56-2.8-.48-26.64s-1.41-9.85.91-12.78l-.36-49.63,9.79-8.1-11.7,6.41Z" transform="translate(0 -55.8)"/><path class="cls-49" d="M1082.67,427.72l-17.55,41.5s15.52-31,20.92-31.72C1082.33,436.15,1082.67,427.72,1082.67,427.72Z" transform="translate(0 -55.8)"/><path class="cls-49" d="M1085.37,420s5.74,5.4,54.32-.67c-29.36,5.06-49.26,8.77-55.67,4.39s4.39-6.75,4.39-6.75Z" transform="translate(0 -55.8)"/><polygon class="cls-49" points="1068.72 357.52 1094.82 355.95 1075.24 359.55 1068.72 357.52"/><polygon class="cls-49" points="1075.24 363.14 1094.37 358.87 1086.72 362.47 1075.24 363.14"/><path class="cls-44" d="M1068.78,371.51s-5.51.34-5.51,1.46v1.12l5.51,1.57s-8.21-.22-8.21-2.47S1068.78,371.51,1068.78,371.51Z" transform="translate(0 -55.8)"/><path class="cls-44" d="M1071.28,373.14s-6-2.47-4-3,5.74,1.69,5.74,1.69-2.81-1-3.37-.79S1071.28,373.14,1071.28,373.14Z" transform="translate(0 -55.8)"/><path class="cls-49" d="M1049.26,487.1l4-6.75-3-13.5,2.36-28.68-6.07,30.71,2.7,13.5-5.95,10.34.63,1.35-3.81,4.76a30,30,0,0,1,2.5,2.94l8-5.55-4.39-3.37,10.46,4Z" transform="translate(0 -55.8)"/><polygon class="cls-50" points="1052.03 356.43 1054.41 362.62 1055.13 356.41 1062.74 348.94 1052.03 356.43"/><polygon class="cls-51" points="1056.32 363.13 1075.3 366.29 1092.69 362.34 1078.46 369.06 1056.32 363.13"/><path class="cls-52" d="M1079.87,404.3h-1.63l-1,.4-6.19.13,12.12,2.11,12.36,2.92c-1.67-1.43-15.82-5.23-15.82-5.23Z" transform="translate(0 -55.8)"/><path class="cls-51" d="M1094.85,413.18s-5.33-.71-7.17-.71-4.48,2.37-6.33,1.32a17.58,17.58,0,0,0-4.22-1.58s4.48,2.77,5.47,3,3.56-1.78,4.94-1.78S1094.85,413.18,1094.85,413.18Z" transform="translate(0 -55.8)"/><path class="cls-50" d="M1043,439.82s-2.38,12.37-4.76,15.23c-1.85,2.22-3.71,11.08-4.43,14.89,1.21-4.52,5.42-14.39,5.42-14.39s4.22-7.25,4.72-11.39S1043,439.82,1043,439.82Z" transform="translate(0 -55.8)"/><path class="cls-50" d="M1039.66,436l2.29-.2v-8.08A45.34,45.34,0,0,0,1039.66,436Z" transform="translate(0 -55.8)"/><path class="cls-50" d="M1045.37,423.17a3.52,3.52,0,0,0-1.24.88l2.71-1.49C1046.34,422.79,1045.84,423,1045.37,423.17Z" transform="translate(0 -55.8)"/><path class="cls-50" d="M1046,511.26c1.56,6.07,5.58,16.58,5.58,16.58l1.42-9Z" transform="translate(0 -55.8)"/><path class="cls-50" d="M1062.31,609.14l1.69-.79-6.3-36.22s-2.36-17.21-3.37-25.64a61.93,61.93,0,0,0-2.41-10.94l.61,13.19s3.18,16.08,2.7,22.27,5.37,28.68,6.33,31.53a12.54,12.54,0,0,1,0,4.07Z" transform="translate(0 -55.8)"/><polygon class="cls-50" points="1061.86 349.99 1077.83 349.2 1062.5 348.5 1061.86 349.99"/><path class="cls-4" d="M1190,214.33l15.33-18,3.59-2.11a26,26,0,0,0-5.67,2.64c-7.34,4.67-22,20.39-29.54,28.75a15,15,0,0,0-3.7,12.29l2.41,15.91,4.24-24.15Z" transform="translate(0 -55.8)"/><path class="cls-4" d="M1289,357c-10-6-46.43-82.44-46.43-82.44,12.8,32.95,34.56,82.06,54,96.54C1296.67,371.07,1299,363,1289,357Z" transform="translate(0 -55.8)"/><path class="cls-53" d="M1366,768V693c-157.53-21.72-487.17-65.47-576-64-19.55.33-582.1,50.46-790,69v70Z" transform="translate(0 -55.8)"/><path class="cls-54" d="M1227.33,672.33c-33.7-3.55-91.81-2.39-163.7,1.8l36.18,16.28c88.92-7.77,159.9-11.24,196.19-7.42Z" transform="translate(0 -55.8)"/><path class="cls-54" d="M662.19,710c-223.19,24.08-427.41,50.59-444.26,53l.71,4.94h244c71.8-10.08,154.12-21.34,238.75-32.32Z" transform="translate(0 -55.8)"/><path class="cls-54" d="M797.86,723.44c69-8.55,137.46-16.55,201-23.23l-51.31-17.78c-57.24,4.69-118.52,10.42-180.35,16.65Z" transform="translate(0 -55.8)"/></g></g></svg>