<svg id="Ñëîé_10" data-name="Ñëîé 10" xmlns="http://www.w3.org/2000/svg" viewBox="0 0 1366 768"><defs><style>.cls-1{fill:#1b0a35;}</style></defs><title>Layer 6</title><path class="cls-1" d="M0,547.66v14.73l8.12-17.31A42.22,42.22,0,0,0,0,547.66Z"/><polygon class="cls-1" points="33.62 553.58 35.62 560.08 5.62 594.58 24.12 546.58 15.12 545.58 0 585.91 0 613.21 41.12 561.58 33.62 553.58"/><polygon class="cls-1" points="49.62 622.08 49.12 612.58 23.62 634.58 6.12 626.58 49.12 602.08 50.12 594.08 23.12 607.58 48.12 585.58 44.62 568.58 0 622.03 0 627.59 30.12 641.08 49.62 622.08"/><path class="cls-1" d="M469.67,699.49l-19-19.24s-1.57,10.08,1,13.16S469.67,699.49,469.67,699.49Z"/><polygon class="cls-1" points="453.52 673.85 457.57 665.74 496.24 699.66 474.2 659.6 467.41 659.24 477.51 654.96 515.03 716.68 495.61 710.08 453.52 673.85"/><polygon class="cls-1" points="485.29 654.09 502.45 656.66 514.48 687.72 511.12 657.72 518.28 661.41 526.45 710.22 540 696.56 528.14 665.03 537.23 667.84 548.34 692.7 522.71 718.97 485.29 654.09"/><path class="cls-1" d="M244.78,562.35l-3,57.5s14.5,42.5,14.5,50,5.5,59.5,5.5,59.5l-14.5-71-8-27.5,1.5,37,17,66.5,10.5,2-9-109-.5-60.5Z"/><polygon class="cls-1" points="263.28 569.85 277.28 575.35 280.28 735.85 277.28 735.35 263.28 569.85"/><polygon class="cls-1" points="281.28 575.35 287.28 578.35 292.28 725.35 294.28 727.85 292.28 581.35 299.28 583.35 297.78 736.35 287.78 735.85 281.28 575.35"/><polygon class="cls-1" points="303.78 584.85 310.78 587.85 310.28 632.85 314.28 631.35 316.28 601.35 316.28 588.35 322.78 590.85 315.28 678.35 308.28 735.85 303.28 735.85 305.78 644.35 303.78 584.85"/><polygon class="cls-1" points="325.78 593.35 330.28 594.35 328.78 674.85 332.78 736.35 319.28 735.35 324.28 670.85 325.78 593.35"/><path class="cls-1" d="M334.78,598.85l5,.5.5,84,3.5,25.5,3.5-40-.5-64,13,3.5,2,19.5,10-15,8.5,66.5,4-3.5,2.5-45.5-7.5-27s13.5-4.5,17-4.5a20.48,20.48,0,0,1,7,1.5l-9.5,14-2.5,19.5,16.5-17,1.5-8.5,14,15.5s-19,29.5-24,36.5-10,48-10,48l17-31.5,20.5-45.5,14,40.5-33.5,64.5-26.5.5-18-68s-7.5,9-7.5,13,22,54,22,54l-13,.5-9-16.5-5-11s-7.5,7-6,9,6.5,1.5,6.5,1.5l3,5.5-3,12.5-15.5-.5Z"/><polygon class="cls-1" points="1355.61 753.94 1359.33 753.87 1366 725.88 1366 655.87 1365.75 655.9 1355.61 753.94"/><polygon class="cls-1" points="1360.83 655.58 1353.32 656.93 1341.26 746.54 1338.69 747.91 1347.04 658.37 1344.67 653 1334.04 752.83 1346.38 753.33 1360.83 655.58"/><polygon class="cls-1" points="1332.74 659.58 1323.99 660.85 1322.8 688.45 1317.94 687.2 1316.68 668.67 1317.33 649.67 1312 657 1314.82 715.9 1321.13 751.67 1327.29 752.08 1327.88 695.85 1332.74 659.58"/><polygon class="cls-1" points="1305.3 663.01 1299.72 663.25 1298.33 712.67 1290.94 750 1307.6 750.48 1304.04 710.58 1305.3 663.01"/><path class="cls-1" d="M1292,662l-4.18,3.55-4,51.39-5.33,15.33-2.7-24.78,3.19-39.15-16.15,1.09-3.25,11.78-11.71-10-13.14,40-4.79-2.47-1.25-28.06L1239,664.81s-16.44-3.85-20.76-4.13a47.53,47.53,0,0,0-8.68.35l11.14,9.34,2.3,12.14-19.64-11.74-1.51-5.33L1184,673.81s22.21,19.6,28.09,24.29,10.39,30.2,10.39,30.2l-19.67-20.66-23.42-29.52-18.87,23.67,38.67,42.2,32.62,2.45,24.9-40.18s8.88,6.12,8.71,8.57-29.26,31.29-29.26,31.29l16,1.36,11.75-9.38,6.6-6.33s9,4.89,7,6-8.07.39-8.07.39l-3.92,3.13,3.19,7.9,12.94-.16Z"/><polygon class="cls-1" points="69.34 93 71.8 89 85.71 138.33 96.34 139 83.25 91.67 87.34 87.67 106.16 139 172.44 135.67 171.63 111 177.35 135 182.26 134.33 180.63 108.33 187.99 133.67 210.9 132.33 210.9 115.67 220.72 131.67 260 124.33 0.61 55.67 0 69.25 0 129.33 71.8 138.33 69.34 93"/><path class="cls-1" d="M24.28,537.72c13.38.77,30-44.52,30-44.52S58.15,537,66.95,541.11s20.26-29.86,20.26-29.86,1.37,21.14,9.06,23.71,24.35-25.84,24.35-25.84,4.66,21.66,9.69,19.76,28.51-26.53,28.51-26.53L0,440.18v77.26c6.14-14.92,9.73-32.65,9.73-32.65S10.91,536.95,24.28,537.72Z"/><path class="cls-1" d="M0,301l57.33-2.67s-26,17.33-39.33,22S0,325,0,325Z"/><path class="cls-1" d="M18.71,202.05,11.9,283.86l52,10.86,19.22-56.65,10,1.32L78.85,300.72l30.13,4,15.27-50.44,5.15,2.69L117,303.71l18.63,1.77,15.25-38.34,5.15,2.69-15.16,37.68,3.09.41s17.91-34.63,16.71-37.48,5.84-2.6,5.84-2.6l-15.34,39,28.5,4.41L195,283.7l-7.33,25.93,80.72-4.2s4.64.61-13.47-5.13C238.79,295.18,42,196.15,0,175v64l8.07-45.72Z"/><polygon class="cls-1" points="190.98 10 203.98 0 190.98 0 190.98 10"/><polygon class="cls-1" points="159.98 25 180.98 14 186.98 0 151.98 0 159.98 25"/><polygon class="cls-1" points="26.98 8 34.98 15 43.98 72 96.98 57 104.98 10 104.98 52 137.98 36 138.98 7 144.98 36 149.98 30 151.98 0 0 0 0 83.99 29.98 73 26.98 8"/><path class="cls-1" d="M15,144s-5,26,3,32,29-22,29-22-5,17,5,23,30-22,30-22-4,13,2,17,21-16,21-16-5,8,2,10,24-19,24-19-3,0-34,2c-26,1.68-80.31-19.93-97-26.88v38.36C5.33,161.59,15,144,15,144Z"/><path class="cls-1" d="M673.06,741s12-64,40-65,27,65,27,65-2-51,16-46,15,48,15,48Z"/><path class="cls-1" d="M143,685s-25-80-18-93,9-16,9-16l15,63-6-73,16-9-2,43,14-45h14l-14,93h8l14-91,14,5-6,43,16-38s11,8,15,12,5,19,5,19l-17,31,21-15s4,5,4,15-38,59-38,59Z"/><path class="cls-1" d="M1366,768V725.07c-54.68-12.8-147.27-30.08-236.14-26.22-138,6-360,33-360,33S584.1,678.08,509.1,678.08s-175.49,43.5-175.49,43.5-16.5-12-49.5-40.5S162.25,631.34,79.76,611.84C48,604.34,21.2,617.25,0,633.42V768Z"/><polygon class="cls-1" points="671.97 718.84 665.09 688.75 668.27 685.11 671.44 700.6 671.97 679.63 675.68 675.08 675.15 701.52 678.86 692.4 683.09 692.4 680.44 721.57 671.97 718.84"/><path class="cls-1" d="M550,685s18-30,26-32,4,28,4,28,14-30,22-40,16,42,16,42,.59-18.42,11.09-15.42,15,55.5,15,55.5Z"/><polygon class="cls-1" points="795.59 732.07 795.59 712.57 804.58 726.07 822.58 715.57 816.58 733.57 795.59 732.07"/><path class="cls-1" d="M861.58,735.07s1.5-22.5,22.5-33,13.5,30,13.5,30,4.5-27,21-27,9,24,9,24-3-45,31.5-49.5,42,46.5,42,46.5Z"/></svg>